<?xml version="1.0" encoding="utf-8"?>
<!-- Generator: Adobe Illustrator 16.0.0, SVG Export Plug-In . SVG Version: 6.00 Build 0)  -->
<!DOCTYPE svg PUBLIC "-//W3C//DTD SVG 1.1//EN" "http://www.w3.org/Graphics/SVG/1.1/DTD/svg11.dtd">
<svg version="1.1" id="Layer_1" xmlns="http://www.w3.org/2000/svg" xmlns:xlink="http://www.w3.org/1999/xlink" x="0px" y="0px"
	 width="612px" height="792px" viewBox="0 0 612 792" enable-background="new 0 0 612 792" xml:space="preserve">
<g>
	<g>
		<path fill="#D4D300" d="M297.722,268.86c0-0.376,0-0.658,0-1.035c0.188,0.094,0.282,0.188,0.47,0.282
			c2.446-2.446,4.892-4.892,7.244-7.244c-1.129-1.129-2.164-2.164-3.292-3.292c-1.223,1.223-2.634,2.634-3.951,3.951
			c-0.188-0.094-0.282-0.188-0.47-0.282c0-0.376,0-0.752,0-1.128c0.188,0.094,0.282,0.282,0.47,0.282
			c1.129-1.128,2.258-2.257,3.387-3.386c-1.035-1.035-2.164-2.164-3.292-3.292c-0.188,0.188-0.282,0.282-0.471,0.47
			c0-0.659,0-1.317,0-1.976c0.094,0.094,0.188,0.094,0.376,0.188c0-0.282,0-0.376,0-0.564c0-1.881,0-3.857,0-5.738
			c0-0.282-0.094-0.47-0.376-0.659c0-0.376,0-0.658,0-1.035c0.094,0,0.188,0.094,0.376,0.188c0-0.188,0-0.376,0-0.47
			c0-1.881,0-3.763,0-5.645c0-0.282,0-0.564-0.376-0.752c0-0.376,0-0.659,0-1.035c0.094,0,0.188,0.094,0.376,0.188
			c0-0.188,0-0.376,0-0.564c0-1.881,0-3.763,0-5.644c0-0.282,0-0.659-0.376-0.753c0-0.376,0-0.658,0-1.035
			c0.094,0,0.188,0.094,0.282,0.188c0-2.069,0-4.139,0-6.209c-0.188,0-0.188,0.094-0.282,0.188c0-0.659,0-1.223,0-1.881
			c0.188,0.188,0.376,0.376,0.564,0.47c1.129-1.129,2.258-2.258,3.293-3.292c-1.223-1.223-2.54-2.54-3.763-3.951
			c0-0.376,0-0.659,0-1.035c0.094,0.094,0.282,0.188,0.376,0.282c1.223,1.223,2.54,2.54,3.763,3.763
			c0.094,0.094,0.188,0.188,0.282,0.282c1.129-1.129,2.258-2.258,3.387-3.387c-0.282-0.282-0.659-0.564-0.941-0.847
			c-2.257-2.258-4.609-4.609-6.867-6.867c0-0.376,0-0.658,0-1.035c0.188,0.094,0.282,0.188,0.376,0.282
			c2.54,2.54,5.08,5.08,7.714,7.714c0.094,0.094,0.188,0.188,0.282,0.282c1.129-1.129,2.258-2.258,3.387-3.292
			c-3.951-3.951-7.808-7.808-11.759-11.759c0-0.376,0-0.658,0-1.035c0.188,0.094,0.282,0.188,0.47,0.376
			c3.857,3.857,7.714,7.714,11.571,11.571c0.094,0.094,0.282,0.188,0.282,0.282c1.129-1.129,2.258-2.258,3.292-3.292
			c-4.985-4.986-10.065-10.066-15.146-15.146c-0.094,0.094-0.282,0.188-0.376,0.282c0-0.376,0-0.658,0-1.035
			c0-0.094,0.094-0.282,0.094-0.376c0-2.069,0-4.139,0-6.115c0-0.094,0-0.282-0.094-0.376c0-0.659,0-1.317,0-1.976
			c0.188,0.188,0.282,0.282,0.47,0.376c3.763-3.763,7.526-7.526,11.195-11.195c-1.035-1.129-2.164-2.164-3.293-3.292
			c-2.54,2.54-5.174,5.174-7.808,7.902c-0.188-0.188-0.282-0.282-0.471-0.376c0-0.376,0-0.658,0-1.035
			c0.188,0.094,0.282,0.188,0.471,0.282c2.446-2.446,4.892-4.892,7.244-7.244c-1.129-1.129-2.164-2.164-3.292-3.292
			c-1.223,1.223-2.634,2.634-3.951,3.951c-0.188-0.094-0.282-0.188-0.471-0.282c0-0.376,0-0.752,0-1.129
			c0.188,0.094,0.282,0.282,0.471,0.282c1.129-1.129,2.258-2.258,3.387-3.387c-1.035-1.035-2.164-2.164-3.293-3.292
			c-0.188,0.188-0.282,0.282-0.47,0.47c0-0.658,0-1.317,0-1.975c0.094,0.094,0.188,0.094,0.376,0.188c0-0.282,0-0.376,0-0.564
			c0-1.881,0-3.857,0-5.739c0-0.282-0.094-0.47-0.376-0.658c0-0.376,0-0.659,0-1.035c0.094,0,0.188,0.094,0.376,0.188
			c0-0.188,0-0.376,0-0.471c0-1.881,0-3.763,0-5.644c0-0.282,0-0.564-0.376-0.752c0-0.376,0-0.659,0-1.035
			c0.094,0,0.188,0.094,0.376,0.188c0-0.188,0-0.376,0-0.564c0-1.882,0-3.763,0-5.645c0-0.282,0-0.659-0.376-0.752
			c0-0.376,0-0.659,0-1.035c0.094,0,0.188,0.094,0.282,0.188c0-2.07,0-4.139,0-6.209c-0.188,0-0.188,0.094-0.282,0.188
			c0-0.658,0-1.223,0-1.881c0.188,0.188,0.376,0.376,0.564,0.47c1.129-1.129,2.258-2.258,3.292-3.292
			c-1.223-1.223-2.54-2.54-3.763-3.951c0-0.376,0-0.659,0-1.035c0.094,0.094,0.282,0.188,0.376,0.282
			c1.223,1.223,2.54,2.54,3.763,3.763c0.094,0.094,0.188,0.188,0.282,0.282c1.129-1.129,2.258-2.258,3.386-3.387
			c-0.282-0.282-0.658-0.564-0.94-0.847c-2.258-2.258-4.609-4.61-6.867-6.867c0-0.376,0-0.659,0-1.035
			c0.188,0.094,0.282,0.188,0.376,0.282c2.54,2.54,5.08,5.08,7.714,7.714c0.095,0.094,0.188,0.188,0.282,0.282
			c1.129-1.129,2.258-2.258,3.387-3.387c-3.951-3.951-7.902-7.902-11.853-11.759c0-0.376,0-0.659,0-1.035
			c0.188,0.094,0.282,0.188,0.47,0.376c3.857,3.857,7.714,7.714,11.571,11.571c0.094,0.094,0.282,0.188,0.282,0.282
			c1.129-1.129,2.258-2.258,3.292-3.292c-5.079-4.986-10.065-10.066-15.146-15.052c-0.094,0.094-0.282,0.188-0.376,0.282
			c0-0.376,0-0.659,0-1.035c0-0.094,0.094-0.282,0.094-0.376c0-2.07,0-4.139,0-6.115c0-0.094,0-0.282-0.094-0.376
			c0-0.658,0-1.317,0-1.976c0.188,0.188,0.282,0.282,0.47,0.376c3.763-3.763,7.526-7.526,11.195-11.195
			c-1.035-1.129-2.164-2.164-3.293-3.292c-2.54,2.54-5.174,5.174-7.808,7.902c-0.188-0.188-0.282-0.282-0.471-0.376
			c0-0.376,0-0.659,0-1.035c0.188,0.094,0.282,0.188,0.471,0.282c2.446-2.446,4.892-4.892,7.243-7.244
			c-1.128-1.129-2.164-2.164-3.292-3.292c-1.223,1.223-2.634,2.634-3.951,3.951c-0.188-0.094-0.282-0.188-0.471-0.282
			c0-0.376,0-0.753,0-1.129c0.188,0.094,0.282,0.282,0.471,0.282c1.129-1.129,2.258-2.258,3.387-3.387
			c-1.035-1.035-2.164-2.164-3.293-3.292c-0.188,0.188-0.282,0.282-0.47,0.47c0-0.659,0-1.317,0-1.976
			c0.094,0.094,0.188,0.094,0.376,0.188c0-0.282,0-0.376,0-0.564c0-1.881,0-3.857,0-5.738c0-0.282-0.094-0.47-0.376-0.659
			c0-0.376,0-0.658,0-1.035c0.094,0,0.188,0.094,0.376,0.188c0-0.188,0-0.376,0-0.47c0-1.881,0-3.763,0-5.644
			c0-0.282,0-0.564-0.376-0.753c0-0.376,0-0.658,0-1.035c0.094,0,0.188,0.094,0.376,0.188c0-0.188,0-0.376,0-0.564
			c0-1.881,0-3.763,0-5.644c0-0.282,0-0.659-0.376-0.753c0-0.376,0-0.658,0-1.035c0.094,0,0.188,0.094,0.282,0.188
			c0-2.069,0-4.139,0-6.208c-0.188,0-0.188,0.094-0.282,0.188c0-0.659,0-1.223,0-1.881c0.188,0.188,0.376,0.376,0.564,0.47
			c1.129-1.129,2.258-2.258,3.292-3.292c-1.223-1.223-2.54-2.54-3.763-3.951c0-0.376,0-0.658,0-1.035
			c0.094,0.094,0.282,0.188,0.376,0.282c1.223,1.223,2.54,2.54,3.763,3.763c0.094,0.094,0.188,0.188,0.282,0.282
			c1.129-1.129,2.258-2.257,3.386-3.386c-0.282-0.282-0.658-0.564-0.94-0.847c-2.352-2.352-4.609-4.61-6.867-6.961
			c0-0.376,0-0.659,0-1.035c-0.753-0.658-0.564-0.564-0.471-0.47c2.54,2.54,5.08,5.08,7.714,7.62
			c0.094,0.094,0.188,0.188,0.282,0.282c1.129-1.129,2.258-2.258,3.387-3.292c-3.951-3.951-7.902-7.808-11.759-11.665
			c0-0.376,0-0.659,0-1.035c0.188,0.094,0.282,0.188,0.47,0.376c3.857,3.857,7.714,7.714,11.571,11.571
			c0.095,0.094,0.282,0.188,0.282,0.282c1.129-1.128,2.258-2.257,3.293-3.292c-5.174-5.08-10.16-10.16-15.24-15.146
			c-0.094,0-0.282,0.094-0.376,0.282c0-1.035,0-1.976,0-3.01c0.282,0,0.564,0,0.847,0c0,0.47,0,1.035,0,1.505
			c0,0.188,0.094,0.47,0.282,0.659c0.752,0.847,1.693,1.693,2.54,2.54c0,0,0.094,0.094,0.282,0.188c0-1.693,0-3.292,0-4.892
			c0.282,0,0.47,0,0.752,0c0,1.787,0,3.668,0,5.456c0.094,0.188,0.188,0.376,0.282,0.564c0.847,0.847,1.693,1.693,2.634,2.54
			c0.094,0.094,0.188,0.094,0.282,0.188c0-1.223,0-2.352,0-3.387c0-1.787,0-3.575,0-5.362c0.282,0,0.47,0,0.752,0
			c0,3.198,0,6.303,0,9.407c0,0.188,0.095,0.376,0.188,0.47c0.847,0.847,1.693,1.693,2.54,2.54c0.094,0.094,0.188,0.094,0.282,0.188
			c0-0.282,0-0.47,0-0.658c0-3.857,0-7.714,0-11.571c0-0.188,0-0.376,0-0.564c0.188,0,0.471,0,0.658,0c0,0.188,0,0.376,0,0.659
			c0,4.139,0,8.278,0,12.512c0,0.188,0,0.47,0.188,0.658c1.034,1.035,2.069,2.07,3.104,3.104c0,0.659,0,1.317,0,1.976
			c-0.941,0.941-1.787,1.882-2.729,2.917c0.847,0.847,1.787,1.787,2.729,2.728c0,0.376,0,0.658,0,1.035
			c-0.659-0.659-1.317-1.223-1.976-1.881c-0.471-0.47-0.94-0.941-1.317-1.317c-1.129,1.129-2.258,2.258-3.292,3.292
			c0,0,0.094,0.094,0.188,0.188c2.07,2.07,4.14,4.139,6.209,6.209c0.094,0.094,0.188,0.094,0.282,0.188c0,0.376,0,0.752,0,1.129
			c-0.094-0.094-0.282-0.188-0.376-0.282c-2.164-2.164-4.327-4.327-6.491-6.491c-0.188-0.188-0.188-0.282-0.282-0.376
			c-1.223,1.223-2.258,2.352-3.387,3.387c0,0,0.094,0.094,0.188,0.188c3.387,3.387,6.773,6.773,10.065,10.066
			c0.094,0.094,0.188,0.188,0.282,0.188c0,0.376,0,0.752,0,1.129c-0.188-0.188-0.282-0.282-0.376-0.376
			c-3.48-3.48-6.867-6.867-10.348-10.348c-0.094-0.188-0.188-0.282-0.282-0.376c-1.129,1.129-2.258,2.258-3.292,3.292
			c0.094,0.094,0.188,0.188,0.282,0.282c3.48,3.48,6.867,6.867,10.348,10.348c1.224,1.223,2.54,2.54,3.763,3.763
			c0,0.376,0,0.659,0,1.035c-0.094-0.094-0.282-0.188-0.376-0.282c-2.069-2.069-4.045-4.045-6.114-6.114
			c-0.095-0.094-0.188-0.282-0.188-0.471c0,0-0.094,0.094-0.188,0.188c0,4.515,0,8.937,0,13.452c0,0,0.095,0,0.095,0.094
			c0.094-0.094,0.188-0.282,0.282-0.376c2.069-2.069,4.045-4.045,6.021-6.021c0.094-0.094,0.282-0.188,0.376-0.282
			c0,0.376,0,0.658,0,1.035c-0.188,0.188-0.282,0.282-0.376,0.376c-2.352,2.352-4.704,4.704-7.056,7.055
			c-2.258,2.258-4.421,4.421-6.679,6.679c-0.094,0.094-0.188,0.282-0.282,0.282c1.129,1.129,2.258,2.258,3.387,3.387
			c0.094-0.188,0.188-0.282,0.282-0.47c3.481-3.481,6.868-6.961,10.348-10.348c0.094-0.094,0.282-0.188,0.376-0.282
			c0,0.376,0,0.752,0,1.129c-0.094,0.094-0.188,0.188-0.282,0.282c-3.292,3.292-6.679,6.679-9.972,9.972
			c-0.094,0.094-0.188,0.188-0.282,0.282c1.129,1.129,2.258,2.258,3.293,3.292c0.094-0.094,0.188-0.188,0.376-0.282
			c2.164-2.164,4.327-4.327,6.491-6.491c0.094-0.094,0.282-0.188,0.376-0.282c0,0.376,0,0.752,0,1.129
			c-0.094,0.094-0.188,0.188-0.282,0.188c-2.069,2.069-4.139,4.139-6.209,6.208c-0.094,0.094-0.188,0.188-0.188,0.188
			c1.129,1.129,2.258,2.258,3.292,3.292c0.753-0.752,1.693-1.693,2.54-2.54c0.282-0.282,0.471-0.47,0.753-0.659
			c0,0.376,0,0.659,0,1.035c-0.941,0.94-1.882,1.881-2.729,2.728c0.941,0.941,1.882,1.881,2.729,2.822c0,0.376,0,0.658,0,1.035
			c-0.095-0.094-0.282-0.188-0.377-0.282c-0.847-0.847-1.693-1.693-2.539-2.54c-0.095-0.094-0.188-0.188-0.377-0.282
			c0,0.282,0,0.471,0,0.659c0,5.55,0,11.101,0,16.651c0,4.233,0,8.467,0,12.794c0,0.188,0,0.47,0.188,0.658
			c1.034,1.035,2.069,2.07,3.104,3.104c0,0.659,0,1.317,0,1.976c-0.941,0.941-1.787,1.882-2.729,2.917
			c0.847,0.847,1.787,1.787,2.729,2.728c0,0.376,0,0.658,0,1.035c-0.659-0.659-1.317-1.223-1.976-1.881
			c-0.471-0.47-0.94-0.941-1.317-1.317c-1.129,1.129-2.258,2.257-3.292,3.292c0,0,0.094,0.094,0.188,0.188
			c2.07,2.07,4.14,4.139,6.209,6.209c0.094,0.094,0.188,0.094,0.282,0.188c0,0.376,0,0.752,0,1.129
			c-0.094-0.094-0.282-0.188-0.376-0.282c-2.164-2.164-4.327-4.327-6.491-6.491c-0.188-0.188-0.188-0.282-0.282-0.376
			c-1.223,1.223-2.258,2.352-3.387,3.387c0,0,0.094,0.094,0.188,0.188c3.387,3.387,6.773,6.773,10.065,10.066
			c0.094,0.094,0.188,0.188,0.282,0.188c0,0.376,0,0.752,0,1.129c-0.188-0.188-0.282-0.282-0.376-0.376
			c-3.48-3.48-6.867-6.867-10.348-10.348c-0.188-0.188-0.282-0.282-0.282-0.282c-1.129,1.129-2.258,2.258-3.292,3.292
			c0.094,0.094,0.188,0.188,0.282,0.282c3.48,3.48,6.867,6.867,10.348,10.348c1.224,1.223,2.54,2.54,3.763,3.763
			c0,0.376,0,0.658,0,1.035c-0.094-0.094-0.282-0.188-0.376-0.282c-2.069-2.069-4.045-4.045-6.114-6.115
			c-0.095-0.094-0.188-0.282-0.188-0.47c0,0-0.094,0.094-0.188,0.188c0,4.516,0,8.937,0,13.453h0.095
			c0.094-0.094,0.188-0.188,0.282-0.282c2.069-2.07,4.045-4.045,6.021-6.021c0.094-0.094,0.282-0.188,0.376-0.282
			c0,0.376,0,0.659,0,1.035c-0.188,0.188-0.282,0.282-0.376,0.376c-2.352,2.352-4.704,4.704-7.056,7.056
			c-2.258,2.258-4.421,4.421-6.679,6.679c-0.094,0.094-0.188,0.282-0.282,0.282c1.129,1.129,2.258,2.258,3.387,3.387
			c0.094-0.188,0.188-0.282,0.282-0.47c3.481-3.481,6.868-6.961,10.348-10.348c0.094-0.094,0.282-0.188,0.376-0.282
			c0,0.376,0,0.752,0,1.129c-0.094,0.094-0.188,0.188-0.282,0.282c-3.292,3.292-6.679,6.679-9.972,9.972
			c-0.094,0.094-0.188,0.188-0.282,0.282c1.129,1.129,2.258,2.258,3.293,3.292c0.094-0.094,0.188-0.188,0.376-0.282
			c2.164-2.164,4.327-4.327,6.491-6.491c0.094-0.094,0.282-0.188,0.376-0.282c0,0.376,0,0.753,0,1.129
			c-0.094,0.094-0.188,0.188-0.282,0.188c-2.069,2.069-4.139,4.139-6.209,6.208c-0.094,0.094-0.188,0.188-0.188,0.188
			c1.129,1.128,2.258,2.257,3.292,3.292c0.753-0.753,1.693-1.693,2.54-2.54c0.282-0.282,0.471-0.47,0.753-0.659
			c0,0.376,0,0.659,0,1.035c-0.941,0.941-1.882,1.882-2.729,2.729c0.941,0.94,1.882,1.881,2.729,2.822c0,0.376,0,0.658,0,1.035
			c-0.095-0.094-0.282-0.188-0.377-0.282c-0.847-0.847-1.693-1.693-2.539-2.54c-0.095-0.094-0.188-0.188-0.377-0.282
			c0,0.282,0,0.47,0,0.659c0,5.55,0,11.101,0,16.651c0,4.233,0,8.466,0,12.794c0,0.188,0,0.47,0.188,0.658
			c1.034,1.035,2.069,2.07,3.104,3.104c0,0.659,0,1.317,0,1.976c-0.941,0.941-1.787,1.881-2.729,2.917
			c0.847,0.847,1.787,1.787,2.729,2.728c0,0.376,0,0.658,0,1.035c-0.659-0.659-1.317-1.223-1.976-1.881
			c-0.471-0.471-0.94-0.941-1.317-1.317c-1.129,1.128-2.258,2.257-3.292,3.292c0,0,0.094,0.094,0.188,0.188
			c2.07,2.069,4.14,4.139,6.209,6.209c0.094,0.094,0.188,0.094,0.282,0.188c0,0.376,0,0.752,0,1.129
			c-0.094-0.094-0.282-0.188-0.376-0.282c-2.164-2.164-4.327-4.328-6.491-6.491c-0.188-0.188-0.188-0.282-0.282-0.376
			c-1.223,1.223-2.258,2.352-3.387,3.386c0,0,0.094,0.094,0.188,0.188c3.387,3.387,6.773,6.773,10.065,10.065
			c0.094,0.094,0.188,0.188,0.282,0.188c0,0.376,0,0.752,0,1.129c-0.188-0.188-0.282-0.282-0.376-0.376
			c-3.48-3.48-6.867-6.867-10.348-10.348c-0.188-0.188-0.282-0.282-0.282-0.282c-1.129,1.129-2.258,2.258-3.292,3.293
			c0.094,0.094,0.188,0.188,0.282,0.282c3.48,3.48,6.867,6.867,10.348,10.348c1.224,1.223,2.54,2.54,3.763,3.763
			c0,0.376,0,0.658,0,1.035c-0.094-0.094-0.282-0.188-0.376-0.282c-2.069-2.069-4.045-4.045-6.114-6.115
			c-0.095-0.094-0.188-0.282-0.188-0.47c0,0-0.094,0.094-0.188,0.188c0,4.516,0,8.937,0,13.546c0.188-0.188,0.282-0.282,0.377-0.376
			c2.069-2.07,4.045-4.045,6.021-6.021c0.094-0.094,0.282-0.188,0.376-0.282c0,0.376,0,0.659,0,1.035
			c-0.188,0.188-0.282,0.282-0.376,0.376c-2.352,2.352-4.704,4.704-7.056,7.056c-2.258,2.258-4.421,4.421-6.679,6.679
			c-0.094,0.094-0.188,0.282-0.282,0.282c1.129,1.129,2.258,2.258,3.387,3.387c0.094-0.188,0.188-0.282,0.282-0.471
			c3.481-3.48,6.868-6.961,10.348-10.348c0.094-0.094,0.282-0.188,0.376-0.282c0,0.376,0,0.752,0,1.129
			c-0.094,0.094-0.188,0.188-0.282,0.282c-3.292,3.292-6.679,6.679-9.972,9.972c-0.094,0.094-0.188,0.188-0.282,0.282
			c1.129,1.129,2.258,2.258,3.293,3.292c0.094-0.094,0.188-0.188,0.376-0.282c2.164-2.164,4.327-4.328,6.491-6.491
			c0.094-0.094,0.282-0.188,0.376-0.282c0,0.376,0,0.752,0,1.129c-0.094,0.094-0.188,0.188-0.282,0.188
			c-2.069,2.07-4.139,4.14-6.209,6.209c-0.094,0.094-0.188,0.188-0.188,0.188c1.129,1.129,2.258,2.257,3.292,3.292
			c0.847-0.847,1.693-1.693,2.54-2.54c0.282-0.282,0.471-0.47,0.753-0.659c0,0.376,0,0.659,0,1.035
			c-0.941,0.94-1.882,1.881-2.729,2.728c0.941,0.94,1.882,1.881,2.729,2.822c0,0.376,0,0.659,0,1.035
			c-0.095-0.094-0.282-0.188-0.377-0.282c-0.847-0.847-1.693-1.693-2.539-2.54c-0.095-0.094-0.188-0.188-0.377-0.282
			c0,0.282,0,0.47,0,0.659c0,5.55,0,11.101,0,16.651c0,4.233,0,8.466,0,12.794c0,0.188,0,0.47,0.188,0.658
			c1.034,1.035,2.069,2.07,3.104,3.104c0,0.659,0,1.317,0,1.976c-0.941,0.941-1.787,1.881-2.729,2.916
			c0.847,0.847,1.787,1.788,2.729,2.729c0,0.376,0,0.658,0,1.035c-0.659-0.659-1.317-1.223-1.976-1.881
			c-0.471-0.471-0.94-0.941-1.317-1.317c-1.129,1.129-2.258,2.258-3.292,3.293c0,0,0.094,0.094,0.188,0.188
			c2.07,2.07,4.14,4.139,6.209,6.209c0.094,0.094,0.188,0.094,0.282,0.188c0,0.376,0,0.752,0,1.129
			c-0.094-0.094-0.282-0.188-0.376-0.282c-2.164-2.164-4.327-4.327-6.491-6.491c-0.188-0.188-0.188-0.282-0.282-0.376
			c-1.223,1.223-2.258,2.352-3.387,3.387c0,0,0.094,0.094,0.188,0.188c3.387,3.387,6.773,6.773,10.065,10.066
			c0.094,0.094,0.188,0.188,0.282,0.188c0,0.376,0,0.752,0,1.129c-0.188-0.188-0.282-0.282-0.376-0.376
			c-3.48-3.48-6.867-6.867-10.348-10.348c-0.188-0.188-0.282-0.282-0.282-0.282c-1.129,1.129-2.258,2.258-3.292,3.292
			c0.094,0.094,0.188,0.188,0.282,0.282c3.48,3.48,6.867,6.867,10.348,10.348c1.224,1.223,2.54,2.54,3.763,3.763
			c0,0.376,0,0.659,0,1.035c-0.094-0.094-0.282-0.188-0.376-0.282c-2.069-2.069-4.045-4.045-6.114-6.115
			c-0.095-0.094-0.188-0.282-0.188-0.47c0,0-0.094,0.094-0.188,0.188c0,4.516,0,8.937,0,13.453c0,0,0.095,0,0.095,0.094
			c0.094-0.094,0.188-0.282,0.282-0.376c2.069-2.07,4.045-4.045,6.021-6.021c0.094-0.094,0.282-0.188,0.376-0.282
			c0,0.376,0,0.658,0,1.035c-0.188,0.188-0.282,0.282-0.376,0.376c-2.352,2.352-4.704,4.704-7.056,7.055
			c-2.258,2.258-4.421,4.421-6.679,6.679c-0.094,0.094-0.188,0.282-0.282,0.282c1.129,1.129,2.258,2.258,3.387,3.387
			c0.094-0.188,0.188-0.282,0.282-0.47c3.481-3.481,6.868-6.961,10.348-10.348c0.094-0.094,0.282-0.188,0.376-0.282
			c0,0.376,0,0.752,0,1.129c-0.094,0.094-0.188,0.188-0.282,0.282c-3.292,3.292-6.679,6.679-9.972,9.972
			c-0.094,0.094-0.188,0.188-0.282,0.282c1.129,1.129,2.258,2.258,3.293,3.292c0.094-0.094,0.188-0.188,0.376-0.282
			c2.164-2.164,4.327-4.327,6.491-6.491c0.094-0.094,0.282-0.188,0.376-0.282c0,0.376,0,0.753,0,1.129
			c-0.094,0.094-0.188,0.188-0.282,0.188c-2.069,2.069-4.139,4.139-6.209,6.208c-0.094,0.094-0.188,0.188-0.188,0.188
			c1.129,1.129,2.258,2.258,3.292,3.292c0.847-0.847,1.693-1.693,2.54-2.54c0.282-0.282,0.471-0.47,0.753-0.659
			c0,0.376,0,0.659,0,1.035c-0.941,0.94-1.882,1.881-2.729,2.728c0.941,0.94,1.882,1.881,2.729,2.822c0,0.376,0,0.658,0,1.035
			c-0.095-0.094-0.282-0.188-0.377-0.282c-0.847-0.847-1.693-1.693-2.539-2.54c-0.095-0.094-0.188-0.188-0.377-0.282
			c0,0.282,0,0.47,0,0.659c0,5.55,0,11.101,0,16.651c0,4.233,0,8.466,0,12.794c0,0.188,0,0.47,0.188,0.659
			c1.034,1.035,2.069,2.069,3.104,3.104c0,0.659,0,1.317,0,1.976c-0.941,0.941-1.787,1.881-2.729,2.917
			c0.847,0.847,1.787,1.787,2.729,2.728c0,0.377,0,0.659,0,1.035c-0.659-0.658-1.317-1.223-1.976-1.881
			c-0.471-0.471-0.94-0.941-1.317-1.317c-1.129,1.129-2.258,2.258-3.292,3.292c0,0,0.094,0.095,0.188,0.188
			c2.07,2.069,4.14,4.14,6.209,6.209c0.094,0.094,0.188,0.094,0.282,0.188c0,0.376,0,0.752,0,1.129
			c-0.094-0.095-0.282-0.188-0.376-0.282c-2.164-2.164-4.327-4.328-6.491-6.491c-0.188-0.188-0.188-0.282-0.282-0.377
			c-1.223,1.224-2.258,2.353-3.387,3.387c0,0,0.094,0.095,0.188,0.188c3.387,3.387,6.773,6.773,10.065,10.065
			c0.094,0.095,0.188,0.188,0.282,0.188c0,0.376,0,0.753,0,1.129c-0.188-0.188-0.282-0.282-0.376-0.376
			c-3.48-3.48-6.867-6.867-10.348-10.349c-0.188-0.188-0.188-0.282-0.282-0.376c-1.223,1.223-2.258,2.258-3.481,3.48
			c0.094,0.095,0.188,0.188,0.282,0.282c2.446,2.446,4.892,4.893,7.244,7.244c0.094,0.094,0.188,0.282,0.282,0.376
			c-0.377,0-0.753,0-1.129,0c-0.094-0.094-0.188-0.282-0.282-0.376c-0.752-0.753-1.505-1.505-2.257-2.258
			c-0.094-0.188-0.188-0.282-0.282-0.471c-0.094,0-0.188,0.095-0.188,0.188c0,0.94,0,1.976,0,3.01c-0.282,0-0.47,0-0.752,0
			c0-1.223,0-2.352,0-3.574c0-0.188-0.094-0.471-0.188-0.564c-0.941-0.94-1.788-1.882-2.729-2.729
			c-0.094-0.094-0.094-0.094-0.282-0.188c0,0.282,0,0.376,0,0.564c0,2.163,0,4.327,0,6.49c-0.376,0-0.752,0-1.129,0
			c0-0.376,0-0.752,0-1.223c0.094,0,0.188,0.095,0.282,0.188c0-2.069,0-4.14,0-6.209c-0.188,0-0.188,0.094-0.282,0.188
			c0-0.659,0-1.224,0-1.882c0.188,0.188,0.376,0.376,0.564,0.471c1.129-1.129,2.258-2.258,3.293-3.293
			c-1.223-1.223-2.54-2.54-3.763-3.951c0-0.376,0-0.658,0-1.034c0.094,0.094,0.282,0.188,0.376,0.282
			c1.223,1.223,2.54,2.54,3.763,3.763c0.094,0.094,0.188,0.188,0.282,0.282c1.129-1.129,2.258-2.258,3.387-3.387
			c-0.282-0.282-0.659-0.564-0.941-0.847c-2.257-2.258-4.609-4.609-6.867-6.867c0-0.376,0-0.659,0-1.035
			c0.188,0.094,0.282,0.188,0.376,0.282c2.54,2.54,5.08,5.08,7.714,7.714c0.094,0.095,0.188,0.188,0.282,0.282
			c1.129-1.129,2.258-2.258,3.387-3.387c-3.857-3.856-7.808-7.714-11.665-11.665c0-0.376,0-0.659,0-1.035
			c0.188,0.094,0.282,0.188,0.47,0.376c3.857,3.857,7.714,7.714,11.571,11.571c0.095,0.094,0.282,0.188,0.282,0.282
			c1.129-1.129,2.258-2.258,3.293-3.293c-4.986-4.986-10.066-10.066-15.146-15.146c-0.094,0.094-0.282,0.188-0.376,0.282
			c0-0.376,0-0.659,0-1.035c0-0.094,0.094-0.282,0.094-0.376c0-2.07,0-4.139,0-6.115c0-0.094,0-0.282-0.094-0.376
			c0-0.658,0-1.317,0-1.976c0.188,0.188,0.282,0.282,0.471,0.376c3.763-3.763,7.526-7.526,11.194-11.195
			c-1.034-1.129-2.163-2.164-3.292-3.292c-2.541,2.54-5.174,5.174-7.809,7.902c-0.188-0.188-0.282-0.282-0.47-0.376
			c0-0.376,0-0.659,0-1.035c0.188,0.094,0.282,0.188,0.47,0.282c2.446-2.446,4.892-4.892,7.244-7.244
			c-1.129-1.129-2.164-2.164-3.292-3.292c-1.223,1.223-2.634,2.634-3.951,3.951c-0.188-0.094-0.282-0.188-0.47-0.282
			c0-0.376,0-0.752,0-1.129c0.188,0.094,0.282,0.282,0.47,0.282c1.129-1.129,2.258-2.258,3.387-3.386
			c-1.035-1.035-2.164-2.164-3.292-3.293c-0.188,0.188-0.282,0.282-0.47,0.471c0-0.659,0-1.317,0-1.976
			c0.094,0.094,0.188,0.094,0.376,0.188c0-0.282,0-0.376,0-0.564c0-1.881,0-3.857,0-5.738c0-0.282-0.094-0.471-0.376-0.659
			c0-0.376,0-0.659,0-1.035c0.094,0,0.188,0.094,0.376,0.188c0-0.188,0-0.376,0-0.47c0-1.881,0-3.763,0-5.645
			c0-0.282,0-0.564-0.376-0.752c0-0.376,0-0.659,0-1.035c0.094,0,0.188,0.094,0.376,0.188c0-0.188,0-0.376,0-0.564
			c0-1.881,0-3.763,0-5.645c0-0.282,0-0.658-0.376-0.752c0-0.376,0-0.659,0-1.035c0.094,0,0.188,0.094,0.282,0.188
			c0-2.069,0-4.139,0-6.209c-0.188,0-0.188,0.094-0.282,0.188c0-0.659,0-1.223,0-1.881c0.188,0.188,0.376,0.376,0.564,0.47
			c1.129-1.129,2.258-2.258,3.292-3.292c-1.223-1.223-2.54-2.54-3.763-3.951c0-0.376,0-0.659,0-1.035
			c0.094,0.094,0.282,0.188,0.376,0.282c1.223,1.223,2.54,2.54,3.763,3.763c0.094,0.094,0.188,0.188,0.282,0.282
			c1.128-1.129,2.257-2.258,3.386-3.387c-0.282-0.282-0.658-0.564-0.94-0.847c-2.258-2.258-4.61-4.609-6.868-6.867
			c0-0.376,0-0.659,0-1.035c0.188,0.094,0.282,0.188,0.376,0.282c2.54,2.54,5.08,5.08,7.714,7.714
			c0.094,0.094,0.188,0.188,0.282,0.282c1.129-1.129,2.258-2.258,3.387-3.292c-4.516-3.763-8.467-7.714-12.324-11.571
			c0-0.376,0-0.658,0-1.035c0.188,0.094,0.282,0.188,0.471,0.376c3.857,3.857,7.714,7.714,11.571,11.571
			c0.094,0.094,0.282,0.188,0.282,0.282c1.129-1.129,2.257-2.258,3.292-3.292c-4.985-5.08-10.066-10.066-15.146-15.146
			c-0.094,0.094-0.282,0.188-0.376,0.282c0-0.376,0-0.658,0-1.035c0-0.094,0.094-0.282,0.094-0.376c0-2.07,0-4.14,0-6.115
			c0-0.094,0-0.282-0.094-0.376c0-0.659,0-1.317,0-1.976c0.188,0.188,0.282,0.282,0.47,0.376c3.763-3.763,7.526-7.526,11.195-11.195
			c-1.129-1.129-2.164-2.164-3.293-3.292c-2.54,2.54-5.174,5.174-7.808,7.902C298.004,269.143,297.815,269.049,297.722,268.86z
			 M298.851,346c0.094,0,0.094,0,0.188-0.094c0.941-0.941,1.881-1.882,2.822-2.822c0.094-0.094,0.188-0.282,0.188-0.47
			c0-7.432,0-14.864,0-22.39c0-0.188-0.094-0.376-0.188-0.47c-0.941-0.941-1.881-1.881-2.822-2.822c0,0-0.094,0-0.188-0.094
			C298.851,326.621,298.851,336.311,298.851,346z M298.851,35.183c0,9.784,0,19.473,0,29.257c0.094,0,0.188-0.094,0.188-0.094
			c0.941-0.94,1.881-1.881,2.822-2.822c0.094-0.094,0.188-0.282,0.188-0.47c0-7.432,0-14.863,0-22.295c0-0.188,0-0.282-0.094-0.47
			C300.92,37.253,299.979,36.218,298.851,35.183z M298.851,252.115c0.094,0,0.188-0.094,0.188-0.094
			c0.941-0.941,1.881-1.882,2.822-2.822c0.094-0.094,0.188-0.282,0.188-0.47c0-7.432,0-14.864,0-22.295
			c0-0.188-0.094-0.47-0.282-0.659c-0.847-0.94-1.693-1.787-2.634-2.634c-0.094-0.094-0.188-0.188-0.282-0.188
			C298.851,232.736,298.851,242.426,298.851,252.115z M298.851,129.068c0,9.784,0,19.473,0,29.257c0.094,0,0.094,0,0.188-0.094
			c0.941-0.94,1.881-1.881,2.917-2.916c0.094-0.094,0.188-0.282,0.188-0.47c0-7.432,0-14.864,0-22.295c0-0.188,0-0.282-0.094-0.471
			C300.92,131.138,299.979,130.103,298.851,129.068z M309.48,359.735c-0.94,0.941-1.881,1.881-2.822,2.822
			c-0.188,0.188-0.282,0.47-0.282,0.659c0,7.525,0,14.958,0,22.483c0,0.188,0.095,0.47,0.282,0.658
			c0.847,0.847,1.693,1.693,2.54,2.54c0.095,0.094,0.188,0.188,0.282,0.282C309.48,379.302,309.48,369.612,309.48,359.735z
			 M309.48,107.62c0-9.878,0-19.567,0-29.445c-0.94,0.94-1.787,1.787-2.728,2.728c-0.282,0.282-0.377,0.564-0.377,0.94
			c0,7.244,0,14.582,0,21.825c0,0.659,0.188,1.129,0.659,1.599C307.882,105.926,308.634,106.679,309.48,107.62z M309.387,201.504
			c0-9.878,0-19.567,0-29.445c-0.94,0.94-1.787,1.787-2.729,2.728c-0.282,0.282-0.376,0.564-0.376,0.94c0,6.868,0,13.829,0,20.696
			c0,0.659-0.188,1.411,0.094,1.976s0.847,0.94,1.317,1.411C308.352,200.281,308.822,200.846,309.387,201.504z M309.48,265.85
			c-0.94,0.941-1.693,1.788-2.634,2.634c-0.376,0.282-0.471,0.658-0.471,1.129c0,1.787,0,3.668,0,5.456c0,5.55,0,11.101,0,16.557
			c0,0.376,0.095,0.659,0.377,0.847c0.658,0.659,1.411,1.411,2.069,2.07c0.188,0.188,0.376,0.47,0.564,0.658l0.094-0.094
			C309.48,285.417,309.48,275.728,309.48,265.85z M305.436,197.553l0.094-0.094c0-7.149,0-14.299,0-21.449
			c-0.094,0-0.094,0-0.188,0.094c-0.94,0.941-1.881,1.881-2.728,2.728c-0.094,0.094-0.094,0.282-0.094,0.47c0,4.892,0,9.878,0,14.77
			c0,0.188,0.094,0.471,0.282,0.659c0.658,0.752,1.411,1.411,2.069,2.07C305.059,197.083,305.248,197.271,305.436,197.553z
			 M305.53,103.668c0-7.244,0-14.393,0-21.637c-0.188,0.188-0.282,0.188-0.376,0.282c-0.752,0.847-1.411,1.599-2.258,2.352
			c-0.282,0.282-0.47,0.659-0.47,1.035c0,4.61,0,9.125,0,13.641c0,0.941,0.188,1.6,0.94,2.164
			C304.119,102.163,304.777,102.916,305.53,103.668z M305.436,291.438c0,0,0.094-0.094,0.188-0.094c0-7.149,0-14.299,0-21.449
			c-0.094,0-0.094,0-0.188,0.094c-0.941,0.941-1.881,1.881-2.728,2.728c-0.188,0.094-0.188,0.282-0.188,0.47
			c0,4.986,0,9.878,0,14.864c0,0.188,0.094,0.376,0.282,0.564c0.564,0.659,1.128,1.129,1.693,1.788
			C304.777,290.686,305.153,291.062,305.436,291.438z M305.53,363.686c-0.094,0-0.094,0-0.188,0.094
			c-0.94,0.94-1.881,1.881-2.728,2.728c-0.094,0.188-0.094,0.376-0.094,0.564c0,4.892,0,9.877,0,14.769
			c0,0.188,0.094,0.471,0.282,0.659c0.658,0.752,1.411,1.411,2.069,2.07c0.188,0.188,0.376,0.47,0.659,0.752l0.094-0.094
			C305.53,378.079,305.53,370.93,305.53,363.686z M302.896,226.904c0,7.15,0,14.205,0,21.354c0.941-0.94,1.881-1.881,2.822-2.822
			c0.094-0.094,0.188-0.282,0.188-0.471c0-4.892,0-9.784,0-14.675c0-0.188,0-0.282-0.188-0.47
			C304.777,228.879,303.93,227.938,302.896,226.904z M302.896,133.019c0,7.149,0,14.205,0,21.261
			c0.941-0.941,1.881-1.882,2.822-2.822c0.094-0.094,0.188-0.282,0.188-0.47c0-4.892,0-9.784,0-14.676c0-0.188,0-0.282-0.188-0.47
			C304.777,134.995,303.836,134.054,302.896,133.019z M302.802,342.049c0.094-0.094,0.188-0.094,0.188-0.188
			c0.847-0.847,1.787-1.693,2.634-2.634c0.094-0.094,0.188-0.376,0.188-0.564c0-4.892,0-9.689,0-14.582
			c0-0.188-0.094-0.47-0.282-0.658c-0.753-0.847-1.6-1.6-2.446-2.446c-0.094-0.094-0.188-0.188-0.282-0.188
			C302.802,327.938,302.802,334.899,302.802,342.049z M302.896,60.489c1.035-1.035,1.976-1.881,2.822-2.822
			c0.094-0.094,0.188-0.282,0.188-0.47c0-4.892,0-9.784,0-14.581c0-0.188-0.094-0.471-0.282-0.659
			c-0.658-0.659-1.317-1.317-2.069-2.07c-0.188-0.188-0.376-0.47-0.564-0.658l-0.094,0.094
			C302.896,46.284,302.896,53.339,302.896,60.489z M301.673,273.752c-0.188,0.188-0.282,0.188-0.282,0.282
			c-0.847,0.847-1.693,1.6-2.446,2.54c-0.188,0.188-0.282,0.471-0.282,0.659c0,2.352,0,4.609,0,6.961
			c0,0.188,0.094,0.47,0.282,0.659c0.753,0.847,1.693,1.693,2.446,2.54c0.094,0.094,0.188,0.188,0.282,0.282
			C301.673,282.877,301.673,278.362,301.673,273.752z M301.673,193.602c0-4.609,0-9.125,0-13.735
			c-0.094,0.094-0.188,0.094-0.188,0.188c-0.94,0.94-1.787,1.787-2.728,2.728c-0.094,0.094-0.188,0.282-0.188,0.47
			c0,2.352,0,4.704,0,6.961c0,0.188,0.094,0.47,0.282,0.564c0.752,0.847,1.599,1.599,2.446,2.446
			C301.391,193.32,301.484,193.414,301.673,193.602z M301.673,85.982c-0.094,0-0.188,0.094-0.188,0.094
			c-0.94,0.941-1.881,1.881-2.728,2.728c-0.094,0.094-0.188,0.282-0.188,0.471c0,2.352,0,4.609,0,6.961
			c0,0.188,0.094,0.47,0.282,0.658c0.847,0.847,1.693,1.693,2.54,2.54c0.094,0.094,0.188,0.188,0.282,0.188
			C301.673,95.108,301.673,90.592,301.673,85.982z M301.673,381.372c0-4.609,0-9.125,0-13.734c-0.094,0.094-0.188,0.094-0.188,0.188
			c-0.94,0.94-1.787,1.787-2.728,2.728c-0.094,0.094-0.188,0.282-0.188,0.47c0,2.352,0,4.704,0,6.961
			c0,0.188,0.094,0.471,0.282,0.564c0.752,0.847,1.599,1.6,2.446,2.446C301.391,381.089,301.484,381.184,301.673,381.372z"/>
	</g>
	<g>
		<path fill="#D4D300" d="M297.722,644.493c0-0.376,0-0.658,0-1.034c0.188,0.094,0.282,0.188,0.47,0.282
			c2.446-2.446,4.892-4.892,7.244-7.244c-1.129-1.129-2.164-2.163-3.292-3.292c-1.223,1.223-2.634,2.634-3.951,3.951
			c-0.188-0.095-0.282-0.188-0.47-0.282c0-0.377,0-0.753,0-1.129c0.188,0.094,0.282,0.282,0.47,0.282
			c1.129-1.129,2.258-2.258,3.387-3.387c-1.035-1.035-2.164-2.164-3.292-3.293c-0.188,0.188-0.282,0.282-0.471,0.471
			c0-0.658,0-1.317,0-1.976c0.094,0.094,0.188,0.094,0.376,0.188c0-0.282,0-0.377,0-0.564c0-1.882,0-3.857,0-5.738
			c0-0.282-0.094-0.471-0.376-0.659c0-0.376,0-0.658,0-1.034c0.094,0,0.188,0.094,0.376,0.188c0-0.188,0-0.376,0-0.47
			c0-1.882,0-3.764,0-5.645c0-0.282,0-0.564-0.376-0.753c0-0.376,0-0.658,0-1.034c0.094,0,0.188,0.094,0.376,0.188
			c0-0.188,0-0.376,0-0.564c0-1.881,0-3.763,0-5.645c0-0.282,0-0.658-0.376-0.752c0-0.377,0-0.659,0-1.035
			c0.094,0,0.188,0.094,0.282,0.188c0-2.069,0-4.14,0-6.209c-0.188,0-0.188,0.094-0.282,0.188c0-0.659,0-1.224,0-1.882
			c0.188,0.188,0.376,0.376,0.564,0.471c1.129-1.129,2.258-2.258,3.293-3.293c-1.223-1.223-2.54-2.54-3.763-3.951
			c0-0.376,0-0.658,0-1.034c0.094,0.094,0.282,0.188,0.376,0.282c1.223,1.223,2.54,2.54,3.763,3.763
			c0.094,0.094,0.188,0.188,0.282,0.282c1.129-1.129,2.258-2.258,3.387-3.387c-0.282-0.282-0.659-0.564-0.941-0.847
			c-2.257-2.258-4.609-4.609-6.867-6.867c0-0.377,0-0.659,0-1.035c0.188,0.095,0.282,0.188,0.376,0.282
			c2.54,2.54,5.08,5.08,7.714,7.714c0.094,0.095,0.188,0.188,0.282,0.282c1.129-1.129,2.258-2.258,3.387-3.292
			c-3.857-3.857-7.808-7.714-11.665-11.665c0-0.377,0-0.659,0-1.035c0.188,0.094,0.282,0.188,0.47,0.376
			c3.857,3.857,7.714,7.715,11.571,11.571c0.095,0.094,0.282,0.188,0.282,0.282c1.129-1.129,2.258-2.258,3.293-3.293
			c-4.986-4.985-10.066-10.065-15.146-15.146c-0.094,0.095-0.282,0.188-0.376,0.282c0-0.376,0-0.658,0-1.034
			c0-0.095,0.094-0.282,0.094-0.377c0-2.069,0-4.139,0-6.114c0-0.095,0-0.282-0.094-0.377c0-0.658,0-1.316,0-1.975
			c0.188,0.188,0.282,0.282,0.471,0.376c3.763-3.763,7.525-7.526,11.194-11.195c-1.034-1.128-2.163-2.163-3.292-3.292
			c-2.541,2.54-5.174,5.174-7.809,7.902c-0.188-0.188-0.282-0.282-0.47-0.377c0-0.376,0-0.658,0-1.034
			c0.188,0.094,0.282,0.188,0.47,0.282c2.446-2.446,4.892-4.892,7.244-7.244c-1.129-1.129-2.164-2.163-3.292-3.292
			c-1.223,1.223-2.634,2.634-3.951,3.951c-0.188-0.095-0.282-0.188-0.47-0.282c0-0.377,0-0.753,0-1.129
			c0.188,0.094,0.282,0.282,0.47,0.282c1.129-1.129,2.258-2.258,3.387-3.387c-1.035-1.035-2.164-2.164-3.292-3.293
			c-0.188,0.188-0.282,0.282-0.47,0.471c0-0.658,0-1.317,0-1.976c0.094,0.094,0.188,0.094,0.376,0.188c0-0.282,0-0.377,0-0.564
			c0-1.882,0-3.857,0-5.739c0-0.282-0.094-0.47-0.376-0.658c0-0.376,0-0.658,0-1.034c0.094,0,0.188,0.094,0.376,0.188
			c0-0.188,0-0.376,0-0.47c0-1.882,0-3.764,0-5.645c0-0.282,0-0.564-0.376-0.753c0-0.376,0-0.658,0-1.035
			c0.094,0,0.188,0.095,0.376,0.188c0-0.188,0-0.376,0-0.564c0-1.881,0-3.763,0-5.645c0-0.282,0-0.658-0.376-0.752
			c0-0.377,0-0.659,0-1.035c0.094,0,0.188,0.094,0.282,0.188c0-2.07,0-4.14,0-6.209c-0.188,0-0.188,0.094-0.282,0.188
			c0-0.659,0-1.224,0-1.882c0.188,0.188,0.376,0.376,0.564,0.471c1.129-1.129,2.258-2.258,3.292-3.293
			c-1.223-1.223-2.54-2.54-3.763-3.951c0-0.376,0-0.658,0-1.034c0.094,0.094,0.282,0.188,0.376,0.282
			c1.223,1.223,2.54,2.539,3.763,3.763c0.094,0.094,0.188,0.188,0.282,0.282c1.128-1.129,2.257-2.258,3.387-3.387
			c-0.283-0.282-0.659-0.564-0.941-0.847c-2.258-2.258-4.61-4.609-6.868-6.867c0-0.377,0-0.659,0-1.035
			c0.188,0.094,0.282,0.188,0.376,0.282c2.54,2.54,5.08,5.08,7.714,7.714c0.094,0.095,0.188,0.188,0.282,0.282
			c1.129-1.129,2.258-2.258,3.387-3.387c-3.857-3.856-7.809-7.714-11.666-11.665c0-0.376,0-0.658,0-1.034
			c0.188,0.094,0.282,0.188,0.47,0.376c3.857,3.857,7.714,7.714,11.571,11.571c0.094,0.094,0.282,0.188,0.282,0.282
			c1.129-1.129,2.258-2.258,3.292-3.293c-4.985-4.985-10.065-10.065-15.146-15.146c-0.094,0.094-0.282,0.188-0.376,0.282
			c0-0.376,0-0.658,0-1.035c0-0.094,0.094-0.282,0.094-0.376c0-2.069,0-4.14,0-6.115c0-0.094,0-0.282-0.094-0.376
			c0-0.658,0-1.317,0-1.976c0.188,0.188,0.282,0.282,0.47,0.376c3.763-3.763,7.526-7.525,11.195-11.194
			c-1.035-1.129-2.164-2.163-3.293-3.292c-2.54,2.539-5.174,5.174-7.808,7.901c-0.188-0.188-0.282-0.282-0.471-0.376
			c0-0.376,0-0.658,0-1.035c0.188,0.095,0.282,0.188,0.471,0.282c2.446-2.445,4.892-4.892,7.243-7.243
			c-1.128-1.129-2.164-2.164-3.292-3.293c-1.223,1.224-2.634,2.635-3.951,3.951c-0.188-0.094-0.282-0.188-0.471-0.282
			c0-0.376,0-0.752,0-1.129c0.188,0.095,0.282,0.282,0.471,0.282c1.129-1.129,2.258-2.258,3.387-3.387
			c-1.035-1.034-2.164-2.163-3.293-3.292c-0.188,0.188-0.282,0.282-0.47,0.47c0-0.658,0-1.316,0-1.976
			c0.094,0.095,0.188,0.095,0.376,0.188c0-0.282,0-0.376,0-0.564c0-1.882,0-3.856,0-5.738c0-0.282-0.094-0.471-0.376-0.658
			c0-0.377,0-0.659,0-1.035c0.094,0,0.188,0.094,0.376,0.188c0-0.188,0-0.377,0-0.471c0-1.882,0-3.763,0-5.645
			c0-0.282,0-0.564-0.376-0.752c0-0.377,0-0.659,0-1.035c0.094,0,0.188,0.094,0.376,0.188c0-0.188,0-0.377,0-0.564
			c0-1.882,0-3.764,0-5.645c0-0.282,0-0.659-0.376-0.753c0-0.376,0-0.658,0-1.035c0.094,0,0.188,0.095,0.282,0.188
			c0-2.069,0-4.139,0-6.209c-0.188,0-0.188,0.095-0.282,0.188c0-0.658,0-1.223,0-1.882c0.188,0.188,0.376,0.377,0.564,0.471
			c1.129-1.129,2.258-2.258,3.292-3.293c-1.223-1.223-2.54-2.54-3.763-3.95c0-0.377,0-0.659,0-1.035
			c0.094,0.094,0.282,0.188,0.376,0.282c1.223,1.223,2.54,2.54,3.763,3.763c0.094,0.094,0.188,0.188,0.282,0.282
			c1.129-1.129,2.258-2.258,3.386-3.387c-0.282-0.282-0.658-0.564-0.94-0.847c-2.258-2.258-4.609-4.609-6.867-6.867
			c0-0.376,0-0.659,0-1.035c0.188,0.094,0.282,0.188,0.376,0.282c2.54,2.54,5.08,5.08,7.714,7.713
			c0.095,0.095,0.188,0.188,0.282,0.283c1.129-1.129,2.258-2.258,3.387-3.293c-3.856-3.857-7.808-7.714-11.665-11.665
			c0-0.376,0-0.659,0-1.035c0.188,0.094,0.282,0.188,0.471,0.376c3.857,3.857,7.714,7.714,11.571,11.571
			c0.094,0.095,0.281,0.188,0.281,0.282c1.129-1.129,2.258-2.258,3.293-3.292c-4.985-4.986-10.066-10.066-15.146-15.146
			c-0.094,0.094-0.282,0.188-0.376,0.282c0-0.941,0-1.976,0-3.01c0.282,0,0.564,0,0.847,0c0,0.47,0,1.035,0,1.505
			c0,0.188,0.094,0.471,0.282,0.659c0.847,0.847,1.693,1.693,2.54,2.54c0.094,0.094,0.188,0.188,0.282,0.282
			c0-1.693,0-3.292,0-4.892c0.282,0,0.47,0,0.752,0c0,1.788,0,3.669,0,5.457c0,0.188,0.094,0.47,0.188,0.564
			c0.847,0.846,1.693,1.693,2.541,2.54c0.094,0.094,0.188,0.094,0.282,0.188c0-1.223,0-2.352,0-3.387c0-1.788,0-3.575,0-5.362
			c0.282,0,0.47,0,0.752,0c0,3.199,0,6.303,0,9.407c0,0.188,0.095,0.376,0.188,0.471c0.847,0.847,1.693,1.693,2.54,2.54
			c0.094,0.094,0.188,0.094,0.282,0.188c0-0.282,0-0.47,0-0.659c0-3.857,0-7.714,0-11.571c0-0.188,0-0.376,0-0.564
			c0.188,0,0.471,0,0.658,0c0,0.188,0,0.376,0,0.659c0,4.139,0,8.278,0,12.512c0,0.188,0,0.47,0.188,0.658
			c1.034,1.035,2.069,2.07,3.104,3.104c0,0.659,0,1.317,0,1.976c-0.941,0.94-1.788,1.882-2.729,2.916
			c0.847,0.847,1.787,1.787,2.729,2.729c0,0.376,0,0.658,0,1.034c-0.659-0.658-1.317-1.223-1.976-1.881
			c-0.471-0.471-0.94-0.94-1.317-1.317c-1.129,1.129-2.258,2.258-3.292,3.293c0,0,0.094,0.094,0.188,0.188
			c2.07,2.07,4.14,4.14,6.209,6.209c0.094,0.095,0.188,0.095,0.282,0.188c0,0.376,0,0.753,0,1.129
			c-0.094-0.094-0.282-0.188-0.376-0.282c-2.164-2.164-4.327-4.327-6.491-6.491c-0.188-0.188-0.188-0.282-0.282-0.376
			c-1.223,1.223-2.258,2.352-3.387,3.387c0,0,0.094,0.094,0.188,0.188c3.387,3.387,6.774,6.773,10.066,10.066
			c0.094,0.094,0.188,0.188,0.282,0.188c0,0.377,0,0.753,0,1.129c-0.188-0.188-0.282-0.282-0.376-0.376
			c-3.48-3.48-6.867-6.867-10.348-10.348c-0.188-0.188-0.282-0.282-0.282-0.282c-1.129,1.129-2.258,2.258-3.292,3.292
			c0.094,0.095,0.188,0.188,0.282,0.282c3.48,3.481,6.867,6.867,10.348,10.349c1.223,1.223,2.54,2.54,3.763,3.763
			c0,0.376,0,0.658,0,1.035c-0.094-0.095-0.282-0.188-0.376-0.282c-2.069-2.07-4.045-4.046-6.114-6.115
			c-0.095-0.094-0.188-0.282-0.188-0.471c0,0-0.094,0.095-0.188,0.188c0,4.516,0,8.938,0,13.452c0,0,0.095,0,0.095,0.095
			c0.094-0.095,0.188-0.282,0.282-0.377c2.069-2.069,4.045-4.045,6.021-6.021c0.094-0.094,0.282-0.188,0.376-0.282
			c0,0.377,0,0.659,0,1.035c-0.188,0.188-0.282,0.282-0.376,0.376c-2.353,2.353-4.704,4.704-7.056,7.056
			c-2.258,2.258-4.421,4.422-6.679,6.68c-0.094,0.094-0.188,0.282-0.282,0.282c1.129,1.128,2.258,2.257,3.387,3.386
			c0.094-0.188,0.188-0.282,0.282-0.47c3.481-3.48,6.868-6.962,10.348-10.349c0.094-0.094,0.282-0.188,0.376-0.282
			c0,0.377,0,0.753,0,1.129c-0.094,0.095-0.188,0.188-0.282,0.282c-3.292,3.293-6.679,6.68-9.972,9.972
			c-0.094,0.095-0.188,0.188-0.282,0.282c1.129,1.129,2.258,2.258,3.293,3.293c0.094-0.094,0.188-0.188,0.376-0.282
			c2.164-2.164,4.327-4.327,6.491-6.491c0.094-0.094,0.282-0.188,0.376-0.282c0,0.377,0,0.753,0,1.129
			c-0.094,0.095-0.188,0.188-0.282,0.188c-2.069,2.069-4.139,4.139-6.209,6.209c-0.094,0.094-0.188,0.188-0.188,0.188
			c1.129,1.129,2.258,2.258,3.292,3.293c0.753-0.753,1.693-1.693,2.54-2.54c0.282-0.282,0.471-0.471,0.753-0.658
			c0,0.376,0,0.658,0,1.034c-0.941,0.941-1.882,1.882-2.729,2.729c0.94,0.94,1.882,1.882,2.729,2.822c0,0.376,0,0.658,0,1.034
			c-0.095-0.094-0.282-0.188-0.377-0.282c-0.847-0.846-1.693-1.692-2.539-2.539c-0.095-0.095-0.188-0.188-0.377-0.282
			c0,0.282,0,0.47,0,0.658c0,5.55,0,11.101,0,16.65c0,4.233,0,8.467,0,12.794c0,0.188,0,0.471,0.188,0.659
			c1.034,1.034,2.069,2.069,3.104,3.104c0,0.658,0,1.316,0,1.976c-0.941,0.94-1.788,1.881-2.729,2.916
			c0.847,0.847,1.787,1.787,2.729,2.728c0,0.377,0,0.659,0,1.035c-0.659-0.658-1.317-1.223-1.976-1.882
			c-0.471-0.47-0.94-0.94-1.317-1.316c-1.129,1.129-2.258,2.258-3.292,3.292c0,0,0.094,0.095,0.188,0.188
			c2.07,2.069,4.14,4.14,6.209,6.209c0.094,0.094,0.188,0.094,0.282,0.188c0,0.377,0,0.753,0,1.129
			c-0.094-0.094-0.282-0.188-0.376-0.282c-2.164-2.163-4.327-4.327-6.491-6.49c-0.188-0.188-0.188-0.282-0.282-0.377
			c-1.223,1.224-2.258,2.353-3.387,3.387c0,0,0.094,0.094,0.188,0.188c3.387,3.387,6.774,6.773,10.066,10.065
			c0.094,0.095,0.188,0.188,0.282,0.188c0,0.376,0,0.753,0,1.129c-0.188-0.188-0.282-0.282-0.376-0.376
			c-3.48-3.481-6.867-6.868-10.348-10.349c-0.188-0.188-0.282-0.282-0.282-0.282c-1.129,1.129-2.258,2.258-3.292,3.293
			c0.094,0.094,0.188,0.188,0.282,0.282c3.48,3.48,6.867,6.867,10.348,10.348c1.223,1.223,2.54,2.54,3.763,3.763
			c0,0.377,0,0.659,0,1.035c-0.094-0.094-0.282-0.188-0.376-0.282c-2.069-2.069-4.045-4.045-6.114-6.114
			c-0.095-0.095-0.188-0.283-0.188-0.471c0,0-0.094,0.094-0.188,0.188c0,4.516,0,8.938,0,13.453h0.095
			c0.094-0.095,0.188-0.188,0.282-0.282c2.069-2.069,4.045-4.045,6.021-6.021c0.094-0.095,0.282-0.188,0.376-0.282
			c0,0.376,0,0.658,0,1.034c-0.188,0.188-0.282,0.282-0.376,0.377c-2.353,2.352-4.704,4.703-7.056,7.055
			c-2.258,2.258-4.421,4.422-6.679,6.68c-0.094,0.094-0.188,0.282-0.282,0.282c1.129,1.129,2.258,2.258,3.387,3.387
			c0.094-0.188,0.188-0.282,0.282-0.471c3.481-3.48,6.868-6.961,10.348-10.348c0.094-0.095,0.282-0.188,0.376-0.282
			c0,0.376,0,0.752,0,1.129c-0.094,0.094-0.188,0.188-0.282,0.282c-3.292,3.292-6.679,6.679-9.972,9.972
			c-0.094,0.094-0.188,0.188-0.282,0.282c1.129,1.129,2.258,2.258,3.293,3.292c0.094-0.094,0.188-0.188,0.376-0.282
			c2.164-2.163,4.327-4.327,6.491-6.491c0.094-0.094,0.282-0.188,0.376-0.282c0,0.377,0,0.753,0,1.129
			c-0.094,0.095-0.188,0.188-0.282,0.188c-2.069,2.069-4.139,4.14-6.209,6.209c-0.094,0.094-0.188,0.188-0.188,0.188
			c1.129,1.129,2.258,2.258,3.292,3.292c0.753-0.752,1.693-1.693,2.54-2.54c0.282-0.282,0.471-0.47,0.753-0.658
			c0,0.376,0,0.658,0,1.034c-0.941,0.941-1.882,1.882-2.729,2.729c0.94,0.94,1.882,1.882,2.729,2.822c0,0.376,0,0.658,0,1.035
			c-0.095-0.095-0.282-0.188-0.377-0.282c-0.847-0.847-1.693-1.693-2.539-2.54c-0.095-0.095-0.188-0.188-0.377-0.282
			c0,0.282,0,0.47,0,0.658c0,5.551,0,11.101,0,16.651c0,4.232,0,8.466,0,12.794c0,0.188,0,0.47,0.188,0.658
			c1.034,1.034,2.069,2.069,3.104,3.104c0,0.658,0,1.316,0,1.976c-0.941,0.94-1.788,1.881-2.729,2.916
			c0.847,0.847,1.787,1.787,2.729,2.729c0,0.376,0,0.658,0,1.034c-0.659-0.658-1.317-1.223-1.976-1.881
			c-0.471-0.471-0.94-0.941-1.317-1.317c-1.129,1.129-2.258,2.258-3.292,3.292c0,0,0.094,0.095,0.188,0.188
			c2.07,2.069,4.14,4.14,6.209,6.209c0.094,0.094,0.188,0.094,0.282,0.188c0,0.376,0,0.752,0,1.129
			c-0.094-0.095-0.282-0.188-0.376-0.282c-2.164-2.164-4.327-4.328-6.491-6.491c-0.188-0.188-0.188-0.282-0.282-0.377
			c-1.223,1.224-2.258,2.353-3.387,3.387c0,0,0.094,0.095,0.188,0.188c3.387,3.387,6.774,6.773,10.066,10.065
			c0.094,0.095,0.188,0.188,0.282,0.188c0,0.376,0,0.753,0,1.129c-0.188-0.188-0.282-0.282-0.376-0.376
			c-3.48-3.481-6.867-6.867-10.348-10.349c-0.188-0.188-0.282-0.282-0.282-0.282c-1.129,1.129-2.258,2.258-3.292,3.293
			c0.094,0.094,0.188,0.188,0.282,0.282c3.48,3.48,6.867,6.867,10.348,10.348c1.223,1.224,2.54,2.54,3.763,3.763
			c0,0.377,0,0.659,0,1.035c-0.094-0.094-0.282-0.188-0.376-0.282c-2.069-2.069-4.045-4.045-6.114-6.114
			c-0.095-0.095-0.188-0.282-0.188-0.471c0,0-0.094,0.094-0.188,0.188c0,4.515,0,8.937,0,13.546
			c0.188-0.188,0.282-0.282,0.377-0.376c2.069-2.069,4.045-4.045,6.021-6.021c0.094-0.095,0.282-0.188,0.376-0.282
			c0,0.376,0,0.658,0,1.034c-0.188,0.188-0.282,0.282-0.376,0.377c-2.353,2.352-4.704,4.703-7.056,7.056
			c-2.258,2.257-4.421,4.421-6.679,6.679c-0.094,0.094-0.188,0.282-0.282,0.282c1.129,1.129,2.258,2.258,3.387,3.387
			c0.094-0.188,0.188-0.282,0.282-0.471c3.481-3.48,6.868-6.961,10.348-10.348c0.094-0.094,0.282-0.188,0.376-0.282
			c0,0.376,0,0.752,0,1.129c-0.094,0.094-0.188,0.188-0.282,0.282c-3.292,3.292-6.679,6.679-9.972,9.972
			c-0.094,0.094-0.188,0.188-0.282,0.282c1.129,1.129,2.258,2.258,3.293,3.292c0.094-0.094,0.188-0.188,0.376-0.282
			c2.164-2.163,4.327-4.327,6.491-6.49c0.094-0.095,0.282-0.188,0.376-0.282c0,0.376,0,0.752,0,1.129
			c-0.094,0.094-0.188,0.188-0.282,0.188c-2.069,2.07-4.139,4.14-6.209,6.209c-0.094,0.094-0.188,0.188-0.188,0.188
			c1.129,1.129,2.258,2.258,3.292,3.292c0.847-0.847,1.693-1.693,2.54-2.54c0.282-0.282,0.471-0.47,0.753-0.658
			c0,0.376,0,0.658,0,1.035c-0.941,0.94-1.882,1.881-2.729,2.728c0.94,0.941,1.882,1.882,2.729,2.822c0,0.377,0,0.658,0,1.035
			c-0.095-0.095-0.282-0.188-0.377-0.282c-0.847-0.847-1.693-1.693-2.539-2.54c-0.095-0.094-0.188-0.188-0.377-0.282
			c0,0.282,0,0.471,0,0.658c0,5.551,0,11.101,0,16.651c0,4.233,0,8.467,0,12.794c0,0.188,0,0.47,0.188,0.658
			c1.034,1.035,2.069,2.069,3.104,3.104c0,0.658,0,1.317,0,1.976c-0.941,0.94-1.788,1.881-2.729,2.916
			c0.847,0.847,1.787,1.787,2.729,2.729c0,0.376,0,0.658,0,1.034c-0.659-0.658-1.317-1.223-1.976-1.881
			c-0.471-0.471-0.94-0.941-1.317-1.317c-1.129,1.129-2.258,2.258-3.292,3.293c0,0,0.094,0.094,0.188,0.188
			c2.07,2.07,4.14,4.14,6.209,6.209c0.094,0.094,0.188,0.094,0.282,0.188c0,0.376,0,0.752,0,1.129
			c-0.094-0.095-0.282-0.188-0.376-0.282c-2.164-2.164-4.327-4.327-6.491-6.491c-0.188-0.188-0.188-0.282-0.282-0.376
			c-1.223,1.223-2.258,2.352-3.387,3.386c0,0,0.094,0.095,0.188,0.188c3.387,3.387,6.774,6.773,10.066,10.066
			c0.094,0.094,0.188,0.188,0.282,0.188c0,0.377,0,0.753,0,1.129c-0.188-0.188-0.282-0.282-0.376-0.376
			c-3.48-3.48-6.867-6.867-10.348-10.349c-0.188-0.188-0.282-0.282-0.282-0.282c-1.129,1.129-2.258,2.258-3.292,3.293
			c0.094,0.094,0.188,0.188,0.282,0.282c3.48,3.48,6.867,6.867,10.348,10.348c1.223,1.224,2.54,2.54,3.763,3.764
			c0,0.376,0,0.658,0,1.034c-0.094-0.094-0.282-0.188-0.376-0.282c-2.069-2.069-4.045-4.045-6.114-6.114
			c-0.095-0.095-0.188-0.282-0.188-0.471c0,0-0.094,0.094-0.188,0.188c0,4.516,0,8.937,0,13.452c0,0,0.095,0,0.095,0.094
			c0.094-0.094,0.188-0.282,0.282-0.376c2.069-2.069,4.045-4.045,6.021-6.021c0.094-0.094,0.282-0.188,0.376-0.282
			c0,0.376,0,0.658,0,1.034c-0.188,0.188-0.282,0.282-0.376,0.377c-2.353,2.352-4.704,4.703-7.056,7.056
			c-2.258,2.258-4.421,4.421-6.679,6.679c-0.094,0.094-0.188,0.282-0.282,0.282c1.129,1.129,2.258,2.258,3.387,3.387
			c0.094-0.188,0.188-0.282,0.282-0.471c3.481-3.48,6.868-6.961,10.348-10.348c0.094-0.094,0.282-0.188,0.376-0.282
			c0,0.376,0,0.753,0,1.129c-0.094,0.094-0.188,0.188-0.282,0.282c-3.292,3.292-6.679,6.679-9.972,9.972
			c-0.094,0.094-0.188,0.188-0.282,0.282c1.129,1.129,2.258,2.258,3.293,3.292c0.094-0.094,0.188-0.188,0.376-0.282
			c2.164-2.163,4.327-4.327,6.491-6.49c0.094-0.095,0.282-0.188,0.376-0.282c0,0.376,0,0.752,0,1.129
			c-0.094,0.094-0.188,0.188-0.282,0.188c-2.069,2.07-4.139,4.14-6.209,6.209c-0.094,0.094-0.188,0.188-0.188,0.188
			c1.129,1.129,2.258,2.258,3.292,3.292c0.847-0.847,1.693-1.693,2.54-2.54c0.282-0.282,0.471-0.47,0.753-0.658
			c0,0.376,0,0.658,0,1.035c-0.941,0.94-1.882,1.881-2.729,2.728c0.94,0.941,1.882,1.882,2.729,2.822c0,0.377,0,0.659,0,1.035
			c-0.095-0.094-0.282-0.188-0.377-0.282c-0.847-0.847-1.693-1.693-2.539-2.54c-0.095-0.094-0.188-0.188-0.377-0.282
			c0,0.282,0,0.471,0,0.658c0,5.551,0,11.101,0,16.651c0,4.233,0,8.467,0,12.794c0,0.188,0,0.47,0.188,0.658
			c1.034,1.035,2.069,2.069,3.104,3.104c0,0.658,0,1.317,0,1.976c-0.941,0.94-1.788,1.882-2.729,2.916
			c0.847,0.847,1.787,1.787,2.729,2.729c0,0.376,0,0.658,0,1.034c-0.659-0.658-1.317-1.223-1.976-1.881
			c-0.471-0.471-0.94-0.941-1.317-1.317c-1.129,1.129-2.258,2.258-3.292,3.293c0,0,0.094,0.094,0.188,0.188
			c2.07,2.07,4.14,4.14,6.209,6.209c0.094,0.094,0.188,0.094,0.282,0.188c0,0.376,0,0.752,0,1.129
			c-0.094-0.095-0.282-0.188-0.376-0.282c-2.164-2.164-4.327-4.327-6.491-6.491c-0.188-0.188-0.188-0.282-0.282-0.376
			c-1.223,1.223-2.258,2.352-3.387,3.387c0,0,0.094,0.094,0.188,0.188c3.387,3.387,6.774,6.773,10.066,10.066
			c0.094,0.094,0.188,0.188,0.282,0.188c0,0.377,0,0.753,0,1.129c-0.188-0.188-0.282-0.282-0.376-0.376
			c-3.48-3.48-6.867-6.867-10.348-10.348c-0.188-0.188-0.188-0.282-0.282-0.377c-1.223,1.223-2.258,2.258-3.481,3.48
			c0.094,0.095,0.188,0.188,0.282,0.282c2.446,2.446,4.892,4.893,7.244,7.244c0.094,0.094,0.188,0.282,0.282,0.376
			c-0.377,0-0.753,0-1.129,0c-0.095-0.094-0.188-0.282-0.282-0.376c-0.753-0.753-1.505-1.505-2.258-2.258
			c-0.094-0.188-0.188-0.282-0.282-0.471c-0.094,0-0.188,0.095-0.188,0.188c0,0.94,0,1.976,0,3.011c-0.282,0-0.47,0-0.752,0
			c0-1.224,0-2.353,0-3.575c0-0.188-0.094-0.471-0.188-0.564c-0.941-0.94-1.788-1.882-2.729-2.729
			c-0.188-1.693-0.188-1.693-0.376-1.787c0,0.282,0,0.376,0,0.564c0,2.164,0,4.327,0,6.491c-0.376,0-0.753,0-1.129,0
			c0-0.376,0-0.753,0-1.223c0.094,0,0.188,0.094,0.282,0.188c0-2.069,0-4.139,0-6.208c-0.188,0-0.188,0.094-0.282,0.188
			c0-0.658,0-1.223,0-1.881c0.188,0.188,0.376,0.376,0.564,0.47c1.129-1.129,2.258-2.258,3.292-3.292
			c-1.223-1.224-2.54-2.54-3.763-3.951c0-0.377,0-0.659,0-1.035c0.094,0.094,0.282,0.188,0.376,0.282
			c1.223,1.223,2.54,2.54,3.763,3.763c0.094,0.095,0.188,0.188,0.282,0.282c1.128-1.129,2.257-2.258,3.387-3.387
			c-0.282-0.282-0.659-0.563-0.941-0.847c-2.258-2.257-4.61-4.609-6.868-6.867c0-0.376,0-0.658,0-1.034
			c0.188,0.094,0.282,0.188,0.376,0.282c2.54,2.54,5.08,5.08,7.714,7.714c0.094,0.094,0.188,0.188,0.282,0.282
			c1.129-1.129,2.258-2.258,3.387-3.387c-3.857-3.857-7.809-7.714-11.666-11.665c0-0.376,0-0.658,0-1.035
			c0.188,0.095,0.282,0.188,0.47,0.377c3.857,3.856,7.714,7.714,11.571,11.57c0.094,0.095,0.282,0.188,0.282,0.282
			c1.129-1.129,2.258-2.258,3.292-3.292c-4.985-4.986-10.065-10.066-15.146-15.146c-0.094,0.095-0.282,0.188-0.376,0.282
			c0-0.376,0-0.658,0-1.034c0-0.094,0.094-0.282,0.094-0.376c0-2.07,0-4.14,0-6.115c0-0.094,0-0.282-0.094-0.376
			c0-0.659,0-1.317,0-1.976c0.188,0.188,0.282,0.282,0.47,0.376c3.763-3.763,7.526-7.525,11.195-11.194
			c-1.035-1.129-2.164-2.164-3.293-3.293c-2.54,2.54-5.174,5.174-7.808,7.902c-0.188-0.188-0.282-0.282-0.471-0.376
			c0-0.377,0-0.659,0-1.035c0.188,0.094,0.282,0.188,0.471,0.282c2.446-2.446,4.892-4.892,7.243-7.244
			c-1.128-1.128-2.164-2.163-3.292-3.292c-1.223,1.223-2.634,2.634-3.951,3.951c-0.188-0.094-0.282-0.188-0.471-0.282
			c0-0.377,0-0.753,0-1.129c0.188,0.094,0.282,0.282,0.471,0.282c1.129-1.129,2.258-2.258,3.387-3.387
			c-1.035-1.035-2.164-2.164-3.293-3.293c-0.188,0.188-0.282,0.282-0.47,0.471c0-0.658,0-1.317,0-1.976
			c0.094,0.094,0.188,0.094,0.376,0.188c0-0.282,0-0.377,0-0.564c0-1.882,0-3.857,0-5.738c0-0.282-0.094-0.471-0.376-0.659
			c0-0.376,0-0.658,0-1.034c0.094,0,0.188,0.094,0.376,0.188c0-0.188,0-0.376,0-0.47c0-1.882,0-3.763,0-5.645
			c0-0.282,0-0.564-0.376-0.753c0-0.376,0-0.658,0-1.034c0.094,0,0.188,0.094,0.376,0.188c0-0.188,0-0.376,0-0.564
			c0-1.881,0-3.763,0-5.644c0-0.282,0-0.659-0.376-0.753c0-0.376,0-0.658,0-1.035c0.094,0,0.188,0.095,0.282,0.188
			c0-2.069,0-4.14,0-6.209c-0.188,0-0.188,0.094-0.282,0.188c0-0.658,0-1.223,0-1.882c0.188,0.188,0.376,0.377,0.564,0.471
			c1.129-1.129,2.258-2.258,3.292-3.293c-1.223-1.223-2.54-2.54-3.763-3.951c0-0.376,0-0.658,0-1.034
			c0.094,0.094,0.282,0.188,0.376,0.282c1.223,1.223,2.54,2.54,3.763,3.763c0.094,0.094,0.188,0.188,0.282,0.282
			c1.129-1.129,2.258-2.258,3.386-3.387c-0.282-0.282-0.658-0.564-0.94-0.847c-2.258-2.258-4.609-4.609-6.867-6.867
			c0-0.376,0-0.658,0-1.035c0.188,0.095,0.282,0.188,0.376,0.282c2.54,2.54,5.08,5.08,7.714,7.714
			c0.095,0.095,0.188,0.188,0.282,0.282c1.129-1.129,2.258-2.258,3.387-3.292c-3.856-3.857-7.808-7.714-11.665-11.665
			c0-0.376,0-0.658,0-1.035c0.188,0.095,0.282,0.188,0.471,0.377c3.857,3.856,7.714,7.714,11.57,11.57
			c0.095,0.095,0.283,0.188,0.283,0.282c1.128-1.129,2.257-2.258,3.292-3.292c-5.738-5.457-10.818-10.537-15.898-15.522
			c-0.094,0.094-0.282,0.188-0.376,0.282c0-0.377,0-0.659,0-1.035c0-0.094,0.094-0.282,0.094-0.376c0-2.07,0-4.14,0-6.115
			c0-0.094,0-0.282-0.094-0.376c0-0.658,0-1.317,0-1.976c0.188,0.188,0.282,0.282,0.47,0.376c3.763-3.763,7.526-7.525,11.195-11.194
			c-1.129-1.129-2.164-2.164-3.293-3.293c-2.54,2.54-5.174,5.175-7.808,7.902C298.004,644.775,297.815,644.588,297.722,644.493z
			 M298.851,721.634c0.094,0,0.094,0,0.188-0.095c0.941-0.94,1.881-1.881,2.822-2.822c0.094-0.094,0.188-0.282,0.188-0.47
			c0-7.432,0-14.864,0-22.39c0-0.188-0.094-0.376-0.188-0.471c-0.941-0.94-1.881-1.881-2.822-2.822c0,0-0.094,0-0.188-0.094
			C298.851,702.16,298.851,711.85,298.851,721.634z M298.851,410.723c0,9.783,0,19.473,0,29.257c0.094,0,0.188-0.095,0.188-0.095
			c0.941-0.94,1.881-1.881,2.822-2.822c0.094-0.094,0.188-0.282,0.188-0.47c0-7.432,0-14.864,0-22.296c0-0.188,0-0.282-0.094-0.47
			C300.92,412.792,299.979,411.852,298.851,410.723z M298.851,627.749c0.094,0,0.188-0.095,0.188-0.095
			c0.941-0.94,1.881-1.881,2.822-2.822c0.094-0.094,0.188-0.282,0.188-0.47c0-7.432,0-14.864,0-22.296
			c0-0.188-0.094-0.47-0.282-0.658c-0.847-0.94-1.693-1.787-2.634-2.634c-0.094-0.095-0.188-0.188-0.282-0.188
			C298.851,608.275,298.851,617.965,298.851,627.749z M298.851,504.607c0,9.783,0,19.473,0,29.257c0.094,0,0.094,0,0.188-0.095
			c0.941-0.94,1.881-1.881,2.917-2.916c0.094-0.094,0.188-0.282,0.188-0.471c0-7.432,0-14.863,0-22.295c0-0.188,0-0.282-0.094-0.471
			C300.92,506.677,299.979,505.736,298.851,504.607z M309.48,735.368c-0.94,0.94-1.881,1.882-2.822,2.822
			c-0.188,0.188-0.282,0.47-0.282,0.658c0,7.526,0,14.958,0,22.483c0,0.188,0.095,0.471,0.282,0.659
			c0.847,0.847,1.693,1.692,2.54,2.539c0.095,0.095,0.188,0.188,0.282,0.282C309.48,754.936,309.48,745.151,309.48,735.368z
			 M309.48,483.158c0-9.877,0-19.566,0-29.444c-0.94,0.94-1.787,1.787-2.728,2.728c-0.282,0.282-0.377,0.564-0.377,0.941
			c0,7.243,0,14.581,0,21.824c0,0.659,0.188,1.129,0.659,1.6C307.882,481.465,308.634,482.312,309.48,483.158z M309.387,577.043
			c0-9.877,0-19.566,0-29.444c-0.94,0.94-1.787,1.787-2.729,2.729c-0.282,0.282-0.376,0.563-0.376,0.94c0,6.867,0,13.828,0,20.696
			c0,0.658-0.188,1.411,0.094,1.975c0.282,0.564,0.847,0.941,1.317,1.411C308.352,575.914,308.822,576.479,309.387,577.043z
			 M309.48,641.483c-0.94,0.94-1.693,1.787-2.634,2.634c-0.376,0.282-0.471,0.658-0.471,1.129c0,1.787,0,3.669,0,5.456
			c0,5.551,0,11.101,0,16.557c0,0.377,0.095,0.659,0.377,0.847c0.658,0.659,1.411,1.411,2.069,2.07
			c0.188,0.188,0.376,0.47,0.564,0.658l0.094-0.094C309.48,661.051,309.48,651.267,309.48,641.483z M305.436,573.092l0.094-0.094
			c0-7.149,0-14.299,0-21.448c-0.094,0-0.094,0-0.188,0.094c-0.94,0.94-1.881,1.882-2.728,2.729
			c-0.094,0.094-0.094,0.376-0.094,0.47c0,4.893,0,9.878,0,14.77c0,0.188,0.094,0.471,0.282,0.659
			c0.658,0.752,1.411,1.411,2.069,2.069C305.059,572.622,305.248,572.904,305.436,573.092z M305.53,479.302
			c0-7.244,0-14.394,0-21.637c-0.188,0.188-0.282,0.188-0.376,0.282c-0.752,0.752-1.505,1.505-2.258,2.258
			c-0.282,0.282-0.47,0.658-0.47,1.034c0,4.61,0,9.125,0,13.641c0,0.941,0.188,1.6,0.94,2.164
			C304.119,477.797,304.777,478.455,305.53,479.302z M305.436,666.977c0,0,0.094-0.094,0.188-0.094c0-7.149,0-14.299,0-21.448
			c-0.094,0-0.094,0-0.188,0.094c-0.941,0.94-1.881,1.882-2.728,2.729c-0.188,0.188-0.188,0.376-0.188,0.47
			c0,4.986,0,9.878,0,14.864c0,0.188,0.094,0.376,0.282,0.564c0.564,0.658,1.128,1.128,1.693,1.787
			C304.777,666.318,305.153,666.601,305.436,666.977z M305.53,739.319c-0.094,0-0.094,0-0.188,0.094
			c-0.94,0.94-1.881,1.882-2.728,2.729c-0.094,0.094-0.094,0.376-0.094,0.47c0,4.893,0,9.878,0,14.77
			c0,0.188,0.094,0.471,0.282,0.659c0.658,0.752,1.411,1.411,2.069,2.069c0.188,0.188,0.376,0.471,0.659,0.753l0.094-0.095
			C305.53,753.618,305.53,746.469,305.53,739.319z M302.896,602.443c0,7.149,0,14.205,0,21.354c0.941-0.941,1.881-1.882,2.822-2.822
			c0.094-0.094,0.188-0.282,0.188-0.471c0-4.892,0-9.783,0-14.675c0-0.188,0-0.282-0.188-0.471
			C304.777,604.419,303.93,603.478,302.896,602.443z M302.896,508.652c0,7.149,0,14.205,0,21.261
			c0.941-0.941,1.881-1.882,2.822-2.822c0.094-0.095,0.188-0.282,0.188-0.471c0-4.892,0-9.783,0-14.675c0-0.188,0-0.282-0.188-0.471
			C304.777,510.534,303.836,509.593,302.896,508.652z M302.802,717.683c0.094-0.095,0.188-0.095,0.188-0.188
			c0.847-0.847,1.787-1.693,2.634-2.634c0.094-0.094,0.188-0.377,0.188-0.564c0-4.892,0-9.689,0-14.581
			c0-0.188-0.094-0.471-0.282-0.659c-0.753-0.847-1.6-1.599-2.446-2.445c-0.094-0.095-0.188-0.188-0.282-0.188
			C302.802,703.478,302.802,710.533,302.802,717.683z M302.896,436.028c1.035-1.035,1.976-1.882,2.822-2.822
			c0.094-0.095,0.188-0.282,0.188-0.471c0-4.892,0-9.783,0-14.581c0-0.188-0.094-0.471-0.282-0.658
			c-0.658-0.659-1.317-1.317-2.069-2.07c-0.188-0.188-0.376-0.47-0.564-0.658l-0.094,0.094
			C302.896,421.917,302.896,428.879,302.896,436.028z M301.673,649.291c-0.188,0.188-0.282,0.188-0.282,0.282
			c-0.847,0.847-1.693,1.6-2.446,2.54c-0.188,0.188-0.282,0.471-0.282,0.659c0,2.352,0,4.609,0,6.961
			c0,0.188,0.094,0.471,0.282,0.658c0.753,0.847,1.693,1.693,2.446,2.54c0.094,0.095,0.188,0.188,0.282,0.282
			C301.673,658.416,301.673,653.9,301.673,649.291z M301.673,569.235c0-4.609,0-9.125,0-13.734
			c-0.094,0.094-0.188,0.094-0.188,0.188c-0.94,0.941-1.787,1.788-2.728,2.729c-0.094,0.094-0.188,0.282-0.188,0.471
			c0,2.352,0,4.703,0,6.961c0,0.188,0.094,0.471,0.282,0.564c0.752,0.847,1.599,1.6,2.446,2.446
			C301.391,568.953,301.484,569.047,301.673,569.235z M301.673,461.616c-0.094,0-0.188,0.094-0.188,0.094
			c-0.94,0.94-1.881,1.882-2.728,2.729c-0.094,0.094-0.188,0.282-0.188,0.47c0,2.352,0,4.609,0,6.962
			c0,0.188,0.094,0.47,0.282,0.658c0.847,0.847,1.693,1.693,2.54,2.54c0.094,0.094,0.188,0.188,0.282,0.188
			C301.673,470.741,301.673,466.226,301.673,461.616z M301.673,756.911c0-4.61,0-9.125,0-13.735
			c-0.094,0.095-0.188,0.095-0.188,0.188c-0.94,0.94-1.787,1.787-2.728,2.729c-0.094,0.094-0.188,0.282-0.188,0.47
			c0,2.353,0,4.704,0,6.962c0,0.188,0.094,0.47,0.282,0.564c0.752,0.847,1.599,1.599,2.446,2.445
			C301.391,756.629,301.484,756.723,301.673,756.911z"/>
	</g>
</g>
</svg>
