<?xml version="1.0" encoding="utf-8"?>
<!-- Generator: Adobe Illustrator 26.1.0, SVG Export Plug-In . SVG Version: 6.00 Build 0)  -->
<svg version="1.1" id="Layer_1" xmlns="http://www.w3.org/2000/svg" xmlns:xlink="http://www.w3.org/1999/xlink" x="0px" y="0px"
	 viewBox="0 0 800 800" style="enable-background:new 0 0 800 800;" xml:space="preserve">
<style type="text/css">
	.st0{fill:#FEDE00;}
</style>
<g>
	<g>
		<g>
			<path class="st0" d="M793.8,492.9L693.5,205.3c-9-25.8-33.4-43.2-60.8-43.2c-18,0-427.3,0-465.4,0c-27.4,0-51.8,17.3-60.8,43.2
				L6.2,492.9c-24.7,70.8,27.7,144.9,103,144.9c47,0,87.9-29.9,103-73.1l16.2-46.4C234,502,249.4,491,266.8,491h3.9
				c9.9,20.4,30.4,33.5,53.6,33.5c23.2,0,43.8-13.2,53.6-33.5h44.2c9.8,20.4,30.4,33.5,53.6,33.5c23.2,0,43.8-13.2,53.6-33.5h3.9
				c17.3,0,32.8,11,38.5,27.3l16.2,46.4c15.3,43.7,56.6,73.1,103,73.1C765.1,637.9,818.8,564.6,793.8,492.9z M288.2,185.7h223.5
				v64.7H288.2V185.7z M324.3,501c-15.9,0-29.7-10.2-34.4-25.3c-1.1-3.4-1.6-7.1-1.6-10.8c0-19.9,16.2-36.1,36.1-36.1
				c19.9,0,36,16.2,36,36.1C360.3,484.6,344.5,501,324.3,501z M475.7,501c-20.1,0-36-16.1-36-36c0-19.9,16.2-36.1,36-36.1
				c19.9,0,36.1,16.2,36.1,36.1C511.7,484.7,495.9,501,475.7,501z M690.8,614.3c-36.3,0-68.7-23-80.7-57.3L594,510.6
				c-8.8-25.2-32.2-42.3-58.7-43.1c1.4-33.9-25.7-62.2-59.6-62.2c-33.6,0-60.9,28-59.6,62.1h-32.3c1.4-33.9-25.8-62.1-59.6-62.1
				c-33.9,0-61,28.3-59.6,62.2c-26.5,0.8-49.9,18-58.7,43.1L189.8,557c-11.9,34-44,57.3-80.7,57.3c-59,0-100-58.1-80.7-113.6
				l100.3-287.6c5.7-16.4,21.2-27.3,38.5-27.3h97.4v76.5c0,6.5,5.3,11.8,11.8,11.8h247.1c6.5,0,11.8-5.3,11.8-11.8v-76.5h97.4
				c17.3,0,32.8,11,38.5,27.3l100.3,287.6C791.2,557,748.9,614.3,690.8,614.3z"/>
			<path class="st0" d="M604.8,321.8c17.4,0,31.5-14.1,31.5-31.5c0-17.4-14.1-31.5-31.5-31.5s-31.5,14.1-31.5,31.5
				C573.3,307.6,587.4,321.8,604.8,321.8z M604.8,282.3c4.4,0,7.9,3.6,7.9,7.9c0,4.4-3.6,7.9-7.9,7.9s-7.9-3.6-7.9-7.9
				S600.4,282.3,604.8,282.3z"/>
			<path class="st0" d="M604.8,365.9c-17.4,0-31.5,14.1-31.5,31.5s14.1,31.5,31.5,31.5s31.5-14.1,31.5-31.5
				C636.3,380,622.1,365.9,604.8,365.9z M604.8,405.3c-4.4,0-7.9-3.6-7.9-7.9c0-4.4,3.6-7.9,7.9-7.9c4.4,0,7.9,3.6,7.9,7.9
				C612.7,401.7,609.1,405.3,604.8,405.3z"/>
			<path class="st0" d="M582.7,343.8c0-17.4-14.1-31.5-31.5-31.5c-17.4,0-31.5,14.1-31.5,31.5s14.1,31.5,31.5,31.5
				C568.6,375.3,582.7,361.2,582.7,343.8z M551.2,351.7c-4.4,0-7.9-3.6-7.9-7.9c0-4.4,3.6-7.9,7.9-7.9s7.9,3.6,7.9,7.9
				C559.1,348.2,555.6,351.7,551.2,351.7z"/>
			<path class="st0" d="M658.3,312.3c-17.4,0-31.5,14.1-31.5,31.5s14.1,31.5,31.5,31.5s31.5-14.1,31.5-31.5
				C689.8,326.4,675.7,312.3,658.3,312.3z M658.3,351.7c-4.4,0-7.9-3.6-7.9-7.9c0-4.4,3.6-7.9,7.9-7.9c4.4,0,7.9,3.6,7.9,7.9
				C666.2,348.2,662.7,351.7,658.3,351.7z"/>
			<path class="st0" d="M266.9,312.3h-41.8v-41.8c0-6.5-5.3-11.8-11.8-11.8H174c-6.5,0-11.8,5.3-11.8,11.8v41.8h-41.8
				c-6.5,0-11.8,5.3-11.8,11.8v39.4c0,6.5,5.3,11.8,11.8,11.8h41.8v41.8c0,6.5,5.3,11.8,11.8,11.8h39.4c6.5,0,11.8-5.3,11.8-11.8
				v-41.8h41.8c6.5,0,11.8-5.3,11.8-11.8v-39.4C278.7,317.6,273.4,312.3,266.9,312.3z M255.1,351.7h-41.8c-6.5,0-11.8,5.3-11.8,11.8
				v41.8h-15.8v-41.8c0-6.5-5.3-11.8-11.8-11.8h-41.8v-15.8H174c6.5,0,11.8-5.3,11.8-11.8v-41.8h15.8v41.8c0,6.5,5.3,11.8,11.8,11.8
				h41.8V351.7z"/>
		</g>
	</g>
</g>
</svg>
