<?xml version="1.0" encoding="utf-8"?>
<!-- Generator: Adobe Illustrator 26.1.0, SVG Export Plug-In . SVG Version: 6.00 Build 0)  -->
<svg version="1.1" id="Capa_1" xmlns="http://www.w3.org/2000/svg" xmlns:xlink="http://www.w3.org/1999/xlink" x="0px" y="0px"
	 viewBox="0 0 800 800" style="enable-background:new 0 0 800 800;" xml:space="preserve">
<style type="text/css">
	.st0{fill:#00E768;}
</style>
<g>
	<path class="st0" d="M425.3,165.8H70.1C35.3,165.8,7,194.1,7,228.9v209.9C7,473.7,35.3,502,70.1,502h355.2
		c34.8,0,63.1-28.3,63.1-63.1V228.9C488.4,194.1,460.1,165.8,425.3,165.8z M452.2,438.9c0,14.8-12.1,26.9-26.9,26.9H70.1
		c-14.8,0-26.9-12.1-26.9-26.9V228.9c0-14.8,12.1-26.9,26.9-26.9h355.2c14.8,0,26.9,12.1,26.9,26.9L452.2,438.9L452.2,438.9z"/>
	<path class="st0" d="M363.4,579.9h-41.4L307.2,516c-2.3-9.7-12-15.8-21.7-13.5c-9.7,2.3-15.8,12-13.5,21.7l12.9,55.7h-88.4
		l12.9-55.7c2.3-9.7-3.8-19.5-13.5-21.7c-9.7-2.3-19.5,3.8-21.7,13.5l-14.8,63.9H118c-10,0-18.1,8.1-18.1,18.1s8.1,18.1,18.1,18.1
		h55.7c0,0,0.1,0,0.1,0c0,0,0.1,0,0.1,0h133.7c0,0,0.1,0,0.1,0c0,0,0.1,0,0.1,0h55.7c10,0,18.1-8.1,18.1-18.1
		S373.4,579.9,363.4,579.9z"/>
	<path class="st0" d="M768.9,165.8H532.7c-10,0-18.1,7.8-18.1,17.4v415.5c0,9.6,8.1,17.4,18.1,17.4h236.2c10,0,18.1-7.8,18.1-17.4
		V183.2C787,173.6,778.9,165.8,768.9,165.8z M750.8,581.3h-200V200.6h200V581.3z"/>
	<path class="st0" d="M618.1,292.5h91.4c10,0,18.1-8.1,18.1-18.1s-8.1-18.1-18.1-18.1h-91.4c-10,0-18.1,8.1-18.1,18.1
		S608.1,292.5,618.1,292.5z"/>
	<path class="st0" d="M618.1,364.9h91.4c10,0,18.1-8.1,18.1-18.1s-8.1-18.1-18.1-18.1h-91.4c-10,0-18.1,8.1-18.1,18.1
		S608.1,364.9,618.1,364.9z"/>
	<path class="st0" d="M663.8,489.4c-15,0-27.1,12.2-27.1,27.1c0,15,12.2,27.1,27.1,27.1c15,0,27.1-12.2,27.1-27.1
		C691,501.6,678.8,489.4,663.8,489.4z M663.8,525.6c-5,0-9-4.1-9-9c0-5,4.1-9,9-9c5,0,9,4.1,9,9
		C672.9,521.5,668.8,525.6,663.8,525.6z"/>
</g>
</svg>
