<?xml version="1.0" standalone="no"?>
<!DOCTYPE svg PUBLIC "-//W3C//DTD SVG 20010904//EN"
 "http://www.w3.org/TR/2001/REC-SVG-20010904/DTD/svg10.dtd">
<svg version="1.0" xmlns="http://www.w3.org/2000/svg"
 width="1500.000000pt" height="1000.000000pt" viewBox="0 0 1500.000000 1000.000000"
 preserveAspectRatio="xMidYMid meet">

<g transform="translate(0.000000,1000.000000) scale(0.100000,-0.100000)"
fill="#000000" stroke="none">
<path d="M3127 9304 c-15 -16 -5 -47 46 -147 98 -189 165 -277 404 -532 145
-155 459 -452 468 -443 3 2 -9 26 -25 52 -148 233 -232 539 -201 729 13 78 31
114 62 125 15 6 -9 20 -108 61 -176 74 -279 108 -397 130 -124 23 -239 35
-249 25z"/>
<path d="M9752 8393 c-44 -4 -44 -4 -25 -25 24 -26 22 -87 -7 -197 -68 -268
-143 -405 -280 -514 l-35 -28 30 7 c39 9 142 48 230 86 116 51 240 123 438
255 144 96 214 150 302 235 63 61 115 116 115 124 0 40 -112 55 -440 59 -157
1 -305 1 -328 -2z"/>
<path d="M5645 6801 c-75 -19 -145 -80 -186 -161 -31 -62 -38 -187 -14 -260
46 -137 215 -211 349 -151 60 26 132 95 164 156 23 43 27 62 27 135 0 128 -46
210 -148 262 -45 22 -142 32 -192 19z m240 -123 c17 -21 25 -41 25 -69 0 -121
-137 -184 -214 -98 -25 29 -28 37 -24 86 10 121 138 170 213 81z"/>
<path d="M7505 6786 c-102 -48 -150 -133 -150 -266 0 -73 4 -92 27 -135 31
-60 103 -129 161 -156 56 -25 158 -25 212 0 82 38 146 124 161 217 14 90 -45
247 -115 304 -76 63 -205 79 -296 36z m126 -102 c31 -32 34 -41 34 -94 0 -51
-4 -63 -26 -86 -78 -77 -209 -12 -209 105 0 37 5 49 35 77 56 53 114 52 166
-2z"/>
<path d="M5075 6228 c-38 -20 -85 -72 -110 -120 -61 -116 -70 -247 -30 -403
32 -123 82 -213 159 -290 81 -80 152 -115 233 -115 131 0 208 83 243 263 35
176 -67 459 -213 595 -42 38 -58 47 -79 43 -5 0 -8 3 -8 8 0 27 -154 42 -195
19z"/>
<path d="M8099 6225 c-103 -38 -187 -124 -253 -260 -103 -211 -112 -398 -28
-548 43 -77 96 -110 183 -115 63 -4 77 -1 134 27 125 62 230 210 274 390 53
213 -5 428 -134 501 -42 23 -120 26 -176 5z"/>
<path d="M6591 6121 c-11 -7 -7 -14 20 -30 19 -12 44 -21 57 -21 32 0 84 29
79 43 -4 15 -136 21 -156 8z m89 -11 c0 -5 -4 -10 -9 -10 -6 0 -13 5 -16 10
-3 6 1 10 9 10 9 0 16 -4 16 -10z"/>
<path d="M8583 3943 c5 -114 12 -166 31 -228 13 -44 22 -83 19 -87 -2 -5 -28
-8 -56 -9 -29 0 -73 -4 -98 -7 l-46 -7 37 -163 c20 -89 39 -165 42 -168 13
-12 505 -64 611 -64 70 0 78 2 73 18 -2 9 -12 55 -21 102 -9 47 -37 164 -61
260 -81 316 -104 378 -104 286 l0 -49 -19 24 c-10 13 -44 61 -75 107 -31 46
-58 77 -60 70 -3 -7 -8 -52 -11 -100 -4 -49 -10 -88 -13 -88 -4 0 -29 38 -56
85 -26 47 -51 85 -53 85 -3 0 -3 -27 -1 -60 2 -33 3 -60 2 -60 -1 0 -23 35
-50 78 -63 101 -77 121 -88 122 -5 0 -6 -62 -3 -147z"/>
<path d="M8996 4062 c-4 -7 290 -53 333 -52 41 0 -11 11 -154 30 -87 12 -162
23 -166 26 -4 2 -10 1 -13 -4z"/>
<path d="M9351 4006 c2 -2 31 -6 64 -9 39 -4 50 -3 30 2 -31 9 -102 14 -94 7z"/>
<path d="M9488 3983 c6 -2 18 -2 25 0 6 3 1 5 -13 5 -14 0 -19 -2 -12 -5z"/>
<path d="M9538 3983 c7 -3 16 -2 19 1 4 3 -2 6 -13 5 -11 0 -14 -3 -6 -6z"/>
<path d="M9593 3973 c9 -2 23 -2 30 0 6 3 -1 5 -18 5 -16 0 -22 -2 -12 -5z"/>
<path d="M9698 3963 c7 -3 16 -2 19 1 4 3 -2 6 -13 5 -11 0 -14 -3 -6 -6z"/>
<path d="M9758 3953 c7 -3 16 -2 19 1 4 3 -2 6 -13 5 -11 0 -14 -3 -6 -6z"/>
<path d="M8232 3699 c-14 -47 -8 -64 14 -35 15 21 20 76 6 76 -4 0 -13 -19
-20 -41z"/>
<path d="M8195 3594 c-9 -25 -15 -47 -13 -50 3 -2 11 14 18 36 13 40 35 46 25
7 l-5 -22 11 22 c12 23 6 53 -9 53 -5 0 -17 -21 -27 -46z"/>
<path d="M5144 3591 c3 -18 6 -39 6 -45 0 -6 5 -4 10 4 8 12 10 11 10 -6 0
-12 7 -27 16 -35 10 -9 7 6 -11 46 -31 71 -40 81 -31 36z"/>
<path d="M8151 3499 c-7 -17 -11 -32 -8 -35 2 -3 10 9 17 26 17 40 8 48 -9 9z"/>
<path d="M8110 3430 c-6 -11 -9 -20 -6 -20 16 0 -378 -381 -412 -399 -13 -7
-20 -17 -16 -24 4 -7 4 -9 -1 -5 -11 11 -55 -15 -103 -61 -34 -33 -39 -41 -23
-41 11 0 22 6 24 13 4 8 8 9 14 1 4 -6 22 -11 40 -12 25 0 33 5 43 29 7 16 21
30 31 30 11 1 22 2 27 4 56 15 62 19 62 37 0 14 5 18 16 14 22 -8 144 119 144
150 0 15 8 24 25 28 17 4 22 11 18 22 -4 10 1 17 15 21 23 6 33 43 19 68 -6
11 -6 15 0 12 5 -3 18 8 28 26 10 17 28 40 41 51 12 12 25 33 28 49 7 32 1 35
-14 7z"/>
<path d="M5251 3394 c0 -11 3 -14 6 -6 3 7 2 16 -1 19 -3 4 -6 -2 -5 -13z"/>
<path d="M5290 3336 c0 -4 7 -20 15 -36 8 -16 12 -36 9 -44 -4 -10 1 -18 10
-22 10 -4 33 -39 53 -78 34 -69 66 -110 76 -100 3 3 16 -5 30 -18 79 -74 102
-91 140 -104 23 -8 70 -30 104 -49 34 -18 74 -35 90 -37 15 -2 38 -9 51 -16
12 -7 22 -9 22 -4 0 15 -56 63 -64 55 -4 -5 -6 -2 -4 6 4 17 -109 84 -129 77
-8 -3 -12 -2 -9 3 3 4 -24 31 -60 60 -36 29 -126 111 -200 183 -74 72 -134
127 -134 124z"/>
<path d="M7195 2900 c3 -5 13 -10 22 -10 9 0 28 -10 42 -22 l25 -23 -25 32
c-14 19 -33 32 -47 32 -13 1 -20 -3 -17 -9z"/>
<path d="M7306 2851 c5 -5 27 -12 48 -16 36 -6 38 -5 27 9 -8 9 -29 16 -49 16
-21 0 -32 -4 -26 -9z"/>
<path d="M8025 1224 c-33 -8 -113 -17 -177 -20 -65 -4 -118 -11 -118 -15 0
-16 63 -51 102 -57 22 -3 105 1 183 8 l142 13 -30 44 c-17 23 -33 42 -36 42
-3 -1 -33 -8 -66 -15z"/>
<path d="M5337 1187 c-9 -7 -9 -10 1 -14 6 -2 10 -9 7 -13 -16 -26 248 -36
280 -11 5 5 30 16 55 25 l45 16 -100 -6 c-55 -3 -139 -1 -188 3 -49 5 -93 5
-100 0z"/>
<path d="M5799 1057 c-26 -18 -78 -51 -115 -75 -69 -44 -66 -45 36 -15 64 18
174 31 280 32 41 1 82 6 90 11 10 6 11 10 3 10 -7 0 -13 8 -13 19 0 14 -10 20
-47 25 -200 27 -183 28 -234 -7z"/>
<path d="M7520 1079 c-25 -4 -64 -8 -87 -8 -47 -1 -55 -8 -46 -39 7 -27 19
-30 153 -37 58 -3 119 -10 135 -15 17 -5 44 -11 60 -13 17 -2 37 -6 45 -9 43
-16 55 -19 45 -9 -21 21 -231 141 -245 140 -8 -1 -35 -5 -60 -10z"/>
</g>
</svg>
