<?xml version="1.0" standalone="no"?>
<!DOCTYPE svg PUBLIC "-//W3C//DTD SVG 20010904//EN"
 "http://www.w3.org/TR/2001/REC-SVG-20010904/DTD/svg10.dtd">
<svg version="1.0" xmlns="http://www.w3.org/2000/svg"
 width="200.000000pt" height="180.000000pt" viewBox="0 0 200.000000 180.000000"
 preserveAspectRatio="xMidYMid meet">

<g transform="translate(0.000000,180.000000) scale(0.100000,-0.100000)"
fill="#000000" stroke="none">
<path d="M633 1785 c-28 -20 -46 -75 -37 -119 l6 -36 -41 0 c-23 0 -55 -7 -71
-15 -52 -27 -30 -83 28 -70 l29 6 -23 -68 c-15 -44 -24 -92 -24 -135 l0 -68
38 0 c57 0 95 -30 142 -113 63 -110 106 -123 148 -45 29 56 28 74 -8 127 -17
24 -30 50 -30 56 0 7 28 40 63 74 50 49 68 61 95 61 32 0 32 0 32 -51 l0 -51
31 26 c54 46 94 46 149 -1 29 -24 30 -24 30 -3 0 11 -9 38 -19 59 l-20 38 46
-8 c46 -9 88 -4 111 14 14 11 15 1 3 -60 -9 -47 1 -48 25 -2 12 25 18 28 30
18 12 -10 14 -6 14 25 0 31 5 39 38 60 49 31 62 47 69 90 6 41 -9 66 -41 66
-12 0 -27 9 -34 20 -13 22 -51 26 -82 10 -13 -7 -33 -3 -75 16 -98 43 -178 56
-300 51 -101 -4 -154 -15 -237 -51 -15 -7 -16 -3 -11 26 3 25 0 39 -12 51 -20
21 -34 21 -62 2z"/>
<path d="M1302 1288 c-13 -13 -17 -70 -6 -81 4 -3 15 -2 26 4 14 8 18 19 16
46 -3 39 -16 51 -36 31z"/>
<path d="M1126 1258 c-9 -12 -16 -32 -17 -43 0 -20 0 -20 -9 0 -13 30 -12 3 1
-34 10 -28 15 -32 42 -29 26 3 32 8 38 36 14 71 -22 117 -55 70z"/>
<path d="M1546 1218 l-17 -33 20 24 c18 20 27 41 18 41 -1 0 -11 -15 -21 -32z"/>
<path d="M571 1167 c-8 -11 -5 -13 19 -9 17 2 37 -1 45 -8 19 -16 19 -59 0
-66 -8 -4 -13 -10 -10 -15 12 -19 35 5 35 35 0 54 -61 96 -89 63z"/>
<path d="M986 1110 c-28 -63 -8 -101 76 -148 28 -16 47 -33 45 -42 -1 -12 13
-16 68 -20 39 -3 75 -9 82 -13 7 -4 29 -1 49 8 20 8 38 14 40 13 8 -9 -51 -60
-85 -74 -49 -19 -118 -16 -256 15 -158 34 -313 118 -302 162 4 15 2 17 -13 9
-10 -6 -36 -10 -58 -10 -32 0 -41 -4 -45 -20 -3 -13 2 -28 14 -39 20 -18 20
-18 -2 -24 -21 -6 -21 -7 9 -37 49 -48 63 -133 36 -205 -6 -15 -4 -16 13 -7
29 16 63 4 63 -22 0 -19 -4 -21 -58 -18 l-58 4 -38 -84 c-21 -46 -41 -90 -45
-98 -5 -8 -22 -16 -39 -18 -28 -3 -33 -9 -52 -60 -37 -96 -16 -200 49 -255 63
-52 163 -39 221 29 24 28 28 29 95 26 63 -2 77 1 128 28 46 24 68 30 121 30
35 0 99 7 141 15 48 9 100 12 137 8 56 -6 63 -9 119 -65 32 -33 59 -65 59 -72
0 -21 83 -92 127 -108 l43 -16 -6 24 c-4 16 2 38 20 68 14 25 24 51 21 58 -4
10 14 19 67 32 53 13 84 28 113 53 23 20 31 32 20 28 -11 -4 -44 -14 -73 -23
-74 -21 -82 -8 -36 59 20 30 40 67 43 84 9 40 65 78 109 73 17 -2 32 0 32 5 0
17 -29 63 -51 82 l-24 20 18 -21 c24 -29 22 -40 -18 -64 -46 -28 -67 -23 -78
20 -15 63 -14 73 13 80 24 6 24 6 -6 13 -18 3 -47 2 -65 -3 -42 -12 -99 -46
-99 -60 0 -18 -36 -11 -56 11 -27 30 -62 46 -117 54 -39 6 -50 13 -63 36 -8
16 -20 29 -27 29 -21 0 -57 74 -55 111 1 19 -2 41 -6 50 -9 21 30 38 114 47
71 8 77 15 66 75 -11 54 -18 59 -59 42 -52 -22 -144 -20 -184 5 -17 10 -47 41
-65 69 -27 40 -37 47 -51 40 -21 -12 -91 5 -128 32 -15 10 -29 19 -31 19 -2 0
-12 -18 -22 -40z m139 -411 c14 -18 24 -38 21 -46 -4 -8 -6 -18 -6 -23 0 -20
-34 -40 -66 -40 -26 0 -44 8 -65 30 -29 29 -30 30 -13 57 40 64 87 71 129 22z"/>
<path d="M1560 922 c0 -6 -2 -17 -5 -24 -6 -15 51 -38 94 -38 12 0 36 -7 54
-15 31 -15 31 -15 -8 20 -22 19 -53 39 -70 44 -16 5 -38 12 -47 16 -10 4 -18
3 -18 -3z"/>
<path d="M235 800 c3 -4 14 -10 25 -13 11 -3 18 -2 15 3 -3 4 -14 10 -25 13
-11 3 -18 2 -15 -3z"/>
<path d="M310 781 c0 -15 -32 -22 -46 -10 -10 8 -41 9 -99 4 -72 -6 -84 -9
-74 -21 6 -8 17 -14 25 -14 29 0 23 -21 -10 -35 -40 -17 -48 -27 -40 -49 11
-29 49 -18 88 25 30 34 41 40 64 36 19 -4 36 2 59 19 17 13 41 24 52 24 25 0
28 15 5 24 -21 8 -24 8 -24 -3z"/>
<path d="M1950 436 c0 -2 9 -6 20 -9 11 -3 18 -1 14 4 -5 9 -34 13 -34 5z"/>
</g>
</svg>
